<svg id="Layer_1" data-name="Layer 1" xmlns="http://www.w3.org/2000/svg" viewBox="0 0 350 75"><defs><style>.cls-1{fill:#fff;}.cls-2{fill:#b4e600;}</style></defs><path class="cls-1" d="M100.12,23.85l-11,27.3h6.55l2.75-7h15.87l2.75,7h6.55l-11-27.3Zm.77,14.77L104.1,30a2.46,2.46,0,0,1,4.61,0l3.21,8.6Z"/><path class="cls-1" d="M140,51.53h15.39V46H139.91c-3.92,0-9.45-2.64-9.45-8.51S136,29,139.91,29h15.43V23.47H140c-9.43,0-15.76,5.64-15.76,14S130.52,51.53,140,51.53Z"/><path class="cls-1" d="M176.06,46c-4.36,0-9.45-2.23-9.45-8.51V23.85h-6.27V37.5c0,8.39,6.33,14,15.76,14H179c9.4,0,16-5.77,16-14V23.85h-6.28V37.5c0,6.28-5.07,8.51-9.41,8.51Z"/><path class="cls-1" d="M223.86,43.32a9.68,9.68,0,0,0,5.06-8.84c0-6.66-5-10.63-13.31-10.63H200v27.3h6.27v-6h.63c9.3,0,9.86,0,10.4-.07l.36,0,4.27,6.13h6.16l-4.82-7.5Zm-8-3.72h-9.6V29.36h9.6c2.91,0,6.78.53,6.78,5.12S218.78,39.6,215.87,39.6Z"/><path class="cls-1" d="M242.5,23.85l-10.95,27.3h6.54l2.76-7h15.86l2.76,7H266l-10.95-27.3Zm.77,14.77,3.21-8.6a2.45,2.45,0,0,1,4.6,0l3.21,8.6Z"/><path class="cls-1" d="M287.3,34.25h-7.12c-2.91,0-5.65,0-5.65-2.44s2.74-2.45,5.65-2.45H297.6V23.85H280.18c-10.69,0-11.92,4.65-11.92,8.15,0,6.88,6.37,7.77,11.92,7.77h8c1.34,0,5.42,0,5.42,3.2,0,2.47-2.45,2.67-5.42,2.67H269.43v5.51H287.3c10.93,0,12.56-5.29,12.56-8.45C299.86,35.35,292,34.25,287.3,34.25Z"/><polygon class="cls-1" points="315.95 51.15 322.22 51.15 322.26 29.36 335.98 29.36 335.98 23.85 302.6 23.85 302.6 29.36 315.95 29.36 315.95 51.15"/><polygon class="cls-2" points="55.01 17 31.1 17 14.02 51.16 37.93 51.16 55.01 17"/><polygon class="cls-2" points="48.18 37.5 68.67 37.5 78.92 57.99 58.43 57.99 48.18 37.5"/></svg>