<svg xmlns="http://www.w3.org/2000/svg" viewBox="0 0 465.1 87.8" style="enable-background:new 0 0 465.1 87.8" xml:space="preserve" fill="#fff"><path d="M192.8 69.7c-.7-2.2-1.5-4.5-2.3-6.8-.8-2.3-1.6-4.6-2.4-7h-24.8c-.8 2.3-1.6 4.6-2.4 7-.8 2.3-1.6 4.6-2.3 6.8h-14.9c2.4-6.8 4.7-13.2 6.8-19 2.1-5.8 4.2-11.3 6.3-16.4 2.1-5.1 4.1-10 6.1-14.6s4.1-9.1 6.2-13.5h13.6c2.1 4.4 4.1 8.9 6.2 13.5 2 4.6 4.1 9.5 6.1 14.6 2.1 5.1 4.2 10.6 6.3 16.4 2.1 5.8 4.4 12.1 6.8 19h-15.3zm-17.2-49.2c-.3.9-.8 2.2-1.4 3.8-.6 1.6-1.3 3.4-2.1 5.5s-1.7 4.4-2.6 6.9c-1 2.5-2 5.1-3 7.9h18.2c-1-2.8-1.9-5.4-2.8-7.9-.9-2.5-1.8-4.8-2.6-6.9-.8-2.1-1.5-3.9-2.2-5.5-.6-1.6-1.1-2.9-1.5-3.8zM209.8 45.6c0-3.5.6-6.8 1.7-9.9 1.1-3.1 2.8-5.8 4.9-8.1 2.1-2.3 4.7-4.1 7.8-5.5 3.1-1.3 6.5-2 10.5-2 2.6 0 4.9.2 7.1.7 2.1.5 4.2 1.1 6.2 2l-2.8 10.9c-1.3-.5-2.7-.9-4.2-1.3s-3.2-.6-5.1-.6c-4 0-7.1 1.3-9 3.8-2 2.5-3 5.8-3 9.9 0 4.3.9 7.7 2.8 10.1 1.9 2.4 5.1 3.6 9.8 3.6 1.7 0 3.4-.2 5.3-.5s3.6-.8 5.2-1.5l1.9 11.2c-1.6.7-3.6 1.3-6 1.7-2.4.5-5 .7-7.9.7-4.4 0-8.2-.7-11.4-2-3.2-1.3-5.8-3.1-7.8-5.4-2.1-2.3-3.5-4.9-4.5-8-1-2.9-1.5-6.2-1.5-9.8zM296.8 68.1c-2.3.7-5.3 1.3-9 1.9-3.7.6-7.5.9-11.6.9s-7.5-.5-10.2-1.7c-2.7-1.1-4.9-2.6-6.5-4.6-1.6-2-2.7-4.4-3.4-7.1-.7-2.8-1-5.8-1-9.1v-27h13.7v25.2c0 4.4.6 7.6 1.7 9.5 1.2 2 3.3 2.9 6.5 2.9 1 0 2 0 3.1-.1s2.1-.2 2.9-.3V21.4h13.7v46.7zM336.5 33.6c-1.2-.3-2.7-.6-4.3-1-1.7-.3-3.4-.5-5.3-.5-.9 0-1.9.1-3.1.2-1.2.2-2.1.3-2.7.5v36.9h-13.7V24c2.4-.9 5.3-1.7 8.7-2.4 3.3-.8 7-1.1 11.1-1.1.7 0 1.6 0 2.7.1 1 .1 2.1.2 3.1.4s2.1.3 3.1.6c1 .2 1.9.5 2.7.8l-2.3 11.2zM360.2 20.2c4 0 7.4.5 10.1 1.4 2.7.9 4.8 2.2 6.5 3.9 1.6 1.7 2.8 3.8 3.4 6.2.7 2.4 1 5.2 1 8.2v28.4c-2 .4-4.7.9-8.2 1.5-3.5.6-7.7.9-12.7.9-3.1 0-5.9-.3-8.5-.8-2.5-.6-4.7-1.5-6.6-2.7-1.8-1.3-3.2-2.9-4.2-4.9-1-2-1.5-4.5-1.5-7.4 0-2.8.6-5.2 1.7-7.2s2.6-3.5 4.5-4.7c1.9-1.2 4.1-2 6.5-2.5 2.4-.5 5-.8 7.6-.8 1.8 0 3.3.1 4.7.2 1.4.2 2.5.4 3.3.6v-1.3c0-2.3-.7-4.2-2.1-5.6-1.4-1.4-3.9-2.1-7.3-2.1-2.3 0-4.6.2-6.9.5-2.3.3-4.2.8-5.9 1.4l-1.7-11c.8-.2 1.8-.5 3-.8s2.5-.5 3.9-.7c1.4-.2 2.9-.4 4.4-.6 1.9-.1 3.5-.1 5-.1zm1.1 40c1.3 0 2.6 0 3.9-.1 1.2-.1 2.2-.2 2.9-.3V49.4c-.6-.1-1.4-.2-2.5-.4-1.1-.1-2.1-.2-3-.2-1.3 0-2.5.1-3.6.2-1.1.2-2.1.4-3 .9-.9.4-1.5 1-2 1.7s-.7 1.7-.7 2.8c0 2.1.7 3.6 2.2 4.4 1.4 1 3.3 1.4 5.8 1.4zM405.2 59.9c2.5 0 4.3-.2 5.3-.7 1-.5 1.6-1.4 1.6-2.8 0-1.1-.7-2.1-2-2.9-1.3-.8-3.4-1.8-6.1-2.8-2.1-.8-4.1-1.6-5.8-2.5-1.7-.9-3.2-1.9-4.4-3.1-1.2-1.2-2.2-2.6-2.8-4.3-.7-1.7-1-3.6-1-6 0-4.5 1.7-8.1 5-10.7 3.4-2.6 8-3.9 13.9-3.9 2.9 0 5.7.3 8.4.8s4.8 1.1 6.4 1.7l-2.4 10.6c-1.6-.6-3.3-1-5.2-1.5-1.9-.4-4-.6-6.3-.6-4.3 0-6.4 1.2-6.4 3.6 0 .6.1 1 .3 1.5.2.4.6.8 1.1 1.2.5.4 1.3.8 2.2 1.3.9.5 2.2 1 3.6 1.5 3 1.1 5.5 2.2 7.4 3.3 2 1.1 3.5 2.2 4.6 3.5 1.1 1.3 1.9 2.6 2.4 4.2s.7 3.3.7 5.3c0 4.8-1.8 8.4-5.4 10.8-3.6 2.4-8.6 3.7-15.2 3.7-4.3 0-7.8-.4-10.7-1.1-2.8-.7-4.8-1.3-5.9-1.8l2.3-11.1c2.3.9 4.7 1.6 7.2 2.2 2.4.3 4.8.6 7.2.6zM433.1 9.4l13.7-2.2v14.2h16.4v11.4h-16.4v17c0 2.9.5 5.2 1.5 6.9 1 1.7 3 2.6 6.1 2.6 1.5 0 3-.1 4.5-.4s3-.7 4.3-1.1l1.9 10.6c-1.7.7-3.5 1.3-5.5 1.7-2 .5-4.5.7-7.4.7-3.7 0-6.8-.5-9.3-1.5-2.4-1-4.4-2.4-5.9-4.2-1.5-1.8-2.5-4-3.1-6.6-.6-2.6-.9-5.4-.9-8.5V9.4z"/><g><path d="m107.2 46 19.5 41.8H84.8L65.3 46h41.9M75.4 0 41.9 71.5H0L33.5 0h41.9"/></g></svg>