<svg width="24" height="24" version="1.1" id="Layer_1" xmlns="http://www.w3.org/2000/svg" xmlns:xlink="http://www.w3.org/1999/xlink" x="0" y="0" viewBox="0 0 31 31" style="enable-background:new 0 0 31 31" xml:space="preserve"><style>.st1{fill:#fff}</style><defs><path id="SVGID_1_" d="M2.5.5h85.8v30H2.5z"/></defs><clipPath id="SVGID_00000065068525022007752310000008743011524995718589_"><use xlink:href="#SVGID_1_" style="overflow:visible"/></clipPath><g style="clip-path:url(#SVGID_00000065068525022007752310000008743011524995718589_)"><path class="st1" d="M14.4.5H6.3c-.3 0-.5.2-.5.5v8.1c0 .3.2.5.5.5h8.1c.3 0 .5-.2.5-.5V1c0-.3-.2-.5-.5-.5zM5.8 21.6v8.1c0 .3.2.5.5.5h8.1c.3 0 .5-.2.5-.5v-8.1c0-.3-.2-.5-.5-.5H6.3c-.3-.1-.5.2-.5.5zM5.8 11.3v8.1c0 .3.2.5.5.5h8.1c.3 0 .5-.2.5-.5v-8.1c0-.3-.2-.5-.5-.5H6.3c-.3 0-.5.2-.5.5zM16.1 21.6v8.1c0 .3.2.5.5.5h8.1c.3 0 .5-.2.5-.5v-8.1c0-.3-.2-.5-.5-.5h-8.1c-.3-.1-.5.2-.5.5zM16.1 11.3v8.1c0 .3.2.5.5.5h8.1c.3 0 .5-.2.5-.5v-8.1c0-.3-.2-.5-.5-.5h-8.1c-.3 0-.5.2-.5.5z"/></g></svg>