<svg  width="24" height="24" xmlns="http://www.w3.org/2000/svg" viewBox="0 0 415 400"><defs><style>.cls-1{fill:#fff;}</style></defs><path class="cls-1" d="M310.584,222.33447H360.5a4.5,4.5,0,0,0,4.5-4.5v-36a4.5,4.5,0,0,0-4.5-4.5H290.54931L235.44043,53.55957A6,6,0,0,0,229.95914,50H185.0408a5.99993,5.99993,0,0,0-5.48123,3.55957l-55.10742,123.7749H54.5a4.5,4.5,0,0,0-4.5,4.5v36a4.5,4.5,0,0,0,4.5,4.5h49.916L50.39458,343.6692A4.50035,4.50035,0,0,0,54.50586,350H94.6792a6.00028,6.00028,0,0,0,5.48152-3.55974L207.5,105.35205,314.83928,346.44026A6.00027,6.00027,0,0,0,320.3208,350h40.17412a4.5,4.5,0,0,0,4.111-6.33031Z"/></svg>