<svg xmlns="http://www.w3.org/2000/svg" xmlns:xlink="http://www.w3.org/1999/xlink" xmlns:lucid="lucid" width="1442.98" height="525.97"><g transform="translate(-3179 -1519)" lucid:page-tab-id="OiwJSpQVZVr0"><path d="M4338.3 1526a6 6 0 0 1 6-6H4615a6 6 0 0 1 6 6v131.97a6 6 0 0 1-6 6h-270.7a6 6 0 0 1-6-6z" stroke="#fff" stroke-width="2" fill="#dfe3e8"/><use xlink:href="#a" transform="translate(4425.625 1554.609)"/><use xlink:href="#b" transform="translate(4520.985 1554.609)"/><path d="M3180 1552.3a6 6 0 0 1 6-6h102.2a6 6 0 0 1 6 6v74.94a6 6 0 0 1-6 6H3186a6 6 0 0 1-6-6z" stroke="#fff" stroke-width="2" fill="#fff"/><use xlink:href="#c" transform="translate(3194.736 1567.916)"/><path d="M3201.16 1591.53a6 6 0 0 1 6-6h59.9a6 6 0 0 1 6 6v22.1a6 6 0 0 1-6 6h-59.9a6 6 0 0 1-6-6z" fill="#fff"/><path d="M3202.16 1591.53c0 .55-.45 1-1 1s-1-.45-1-1c0-.56.45-1 1-1s1 .44 1 1zm1.76-4.25c0 .55-.45 1-1 1-.56 0-1-.45-1-1s.44-1 1-1c.55 0 1 .45 1 1zm4.24-1.75c0 .55-.45 1-1 1s-1-.45-1-1c0-.56.45-1 1-1s1 .44 1 1zm4 0c0 .55-.46 1-1 1-.56 0-1-.45-1-1 0-.56.44-1 1-1 .54 0 1 .44 1 1zm3.98 0c0 .55-.44 1-1 1-.55 0-1-.45-1-1 0-.56.45-1 1-1 .56 0 1 .44 1 1zm4 0c0 .55-.45 1-1 1-.56 0-1-.45-1-1 0-.56.44-1 1-1 .55 0 1 .44 1 1zm4 0c0 .55-.46 1-1 1-.56 0-1-.45-1-1 0-.56.44-1 1-1 .54 0 1 .44 1 1zm3.98 0c0 .55-.45 1-1 1s-1-.45-1-1c0-.56.45-1 1-1s1 .44 1 1zm4 0c0 .55-.45 1-1 1-.56 0-1-.45-1-1 0-.56.44-1 1-1 .55 0 1 .44 1 1zm4 0c0 .55-.46 1-1 1-.57 0-1-.45-1-1 0-.56.43-1 1-1 .54 0 1 .44 1 1zm3.98 0c0 .55-.45 1-1 1s-1-.45-1-1c0-.56.45-1 1-1s1 .44 1 1zm4 0c0 .55-.46 1-1 1-.56 0-1-.45-1-1 0-.56.44-1 1-1 .54 0 1 .44 1 1zm3.98 0c0 .55-.44 1-1 1-.55 0-1-.45-1-1 0-.56.45-1 1-1 .56 0 1 .44 1 1zm4 0c0 .55-.45 1-1 1-.56 0-1-.45-1-1 0-.56.44-1 1-1 .55 0 1 .44 1 1zm4 0c0 .55-.46 1-1 1-.56 0-1-.45-1-1 0-.56.44-1 1-1 .54 0 1 .44 1 1zm3.98 0c0 .55-.45 1-1 1s-1-.45-1-1c0-.56.45-1 1-1s1 .44 1 1zm4 0c0 .55-.45 1-1 1-.56 0-1-.45-1-1 0-.56.44-1 1-1 .55 0 1 .44 1 1zm4 0c0 .55-.46 1-1 1-.57 0-1-.45-1-1 0-.56.43-1 1-1 .54 0 1 .44 1 1zm4.23 1.75c0 .55-.46 1-1 1-.56 0-1-.45-1-1s.44-1 1-1c.54 0 1 .45 1 1zm1.75 4.25c0 .55-.45 1-1 1-.56 0-1-.45-1-1 0-.56.44-1 1-1 .55 0 1 .44 1 1zm0 3.68c0 .56-.45 1-1 1-.56 0-1-.44-1-1 0-.54.44-1 1-1 .55 0 1 .46 1 1zm0 3.7c0 .55-.45 1-1 1-.56 0-1-.45-1-1 0-.56.44-1 1-1 .55 0 1 .44 1 1zm0 3.68c0 .55-.45 1-1 1-.56 0-1-.45-1-1s.44-1 1-1c.55 0 1 .45 1 1zm0 3.7c0 .54-.45 1-1 1-.56 0-1-.46-1-1 0-.57.44-1 1-1 .55 0 1 .43 1 1zm0 3.67c0 .55-.45 1-1 1-.56 0-1-.45-1-1s.44-1 1-1c.55 0 1 .45 1 1zm0 3.7c0 .54-.45 1-1 1-.56 0-1-.46-1-1 0-.57.44-1 1-1 .55 0 1 .43 1 1zm-1.76 4.23c0 .55-.46 1-1 1-.56 0-1-.45-1-1s.44-1 1-1c.54 0 1 .45 1 1zm-4.25 1.76c0 .55-.45 1-1 1-.56 0-1-.45-1-1 0-.56.44-1 1-1 .55 0 1 .44 1 1zm-4 0c0 .55-.44 1-1 1-.55 0-1-.45-1-1 0-.56.45-1 1-1 .56 0 1 .44 1 1zm-4 0c0 .55-.44 1-1 1-.54 0-1-.45-1-1 0-.56.46-1 1-1 .56 0 1 .44 1 1zm-3.98 0c0 .55-.45 1-1 1s-1-.45-1-1c0-.56.45-1 1-1s1 .44 1 1zm-4 0c0 .55-.44 1-1 1-.55 0-1-.45-1-1 0-.56.45-1 1-1 .56 0 1 .44 1 1zm-4 0c0 .55-.43 1-1 1-.54 0-1-.45-1-1 0-.56.46-1 1-1 .57 0 1 .44 1 1zm-3.98 0c0 .55-.46 1-1 1-.56 0-1-.45-1-1 0-.56.44-1 1-1 .54 0 1 .44 1 1zm-4 0c0 .55-.45 1-1 1s-1-.45-1-1c0-.56.45-1 1-1s1 .44 1 1zm-4 0c0 .55-.44 1-1 1-.55 0-1-.45-1-1 0-.56.45-1 1-1 .56 0 1 .44 1 1zm-4 0c0 .55-.43 1-1 1-.54 0-1-.45-1-1 0-.56.46-1 1-1 .57 0 1 .44 1 1zm-3.98 0c0 .55-.45 1-1 1s-1-.45-1-1c0-.56.45-1 1-1s1 .44 1 1zm-4 0c0 .55-.44 1-1 1-.54 0-1-.45-1-1 0-.56.46-1 1-1 .56 0 1 .44 1 1zm-3.98 0c0 .55-.45 1-1 1-.56 0-1-.45-1-1 0-.56.44-1 1-1 .55 0 1 .44 1 1zm-4 0c0 .55-.44 1-1 1-.55 0-1-.45-1-1 0-.56.45-1 1-1 .56 0 1 .44 1 1zm-4 0c0 .55-.44 1-1 1-.54 0-1-.45-1-1 0-.56.46-1 1-1 .56 0 1 .44 1 1zm-3.98 0c0 .55-.45 1-1 1s-1-.45-1-1c0-.56.45-1 1-1s1 .44 1 1zm-4.24-1.76c0 .55-.45 1-1 1-.56 0-1-.45-1-1s.44-1 1-1c.55 0 1 .45 1 1zm-1.76-4.24c0 .55-.45 1-1 1s-1-.45-1-1c0-.56.45-1 1-1s1 .44 1 1zm0-3.7c0 .56-.45 1-1 1s-1-.44-1-1c0-.54.45-1 1-1s1 .46 1 1zm0-3.67c0 .55-.45 1-1 1s-1-.45-1-1c0-.56.45-1 1-1s1 .44 1 1zm0-3.7c0 .56-.45 1-1 1s-1-.44-1-1c0-.54.45-1 1-1s1 .46 1 1zm0-3.67c0 .55-.45 1-1 1s-1-.45-1-1c0-.56.45-1 1-1s1 .44 1 1zm0-3.7c0 .56-.45 1-1 1s-1-.44-1-1c0-.54.45-1 1-1s1 .46 1 1zm0-3.67c0 .55-.45 1-1 1s-1-.45-1-1c0-.56.45-1 1-1s1 .44 1 1z"/><use xlink:href="#d" transform="translate(3223.155 1605.475)"/><path d="M3308.04 1580.28a10 10 0 0 1 10-10h3.5a10 10 0 0 1 10 10v3.3a10 10 0 0 1-10 10h-3.5a10 10 0 0 1-10-10z" stroke="#000" stroke-width="2" fill="#fff"/><use xlink:href="#e" transform="translate(3315.564 1586.935)"/><path d="M3335.93 1570.28h109.56v35.8h-109.57z" fill="none"/><use xlink:href="#f" transform="translate(3340.935 1587.722)"/><use xlink:href="#g" transform="translate(3402.207 1587.722)"/><path d="M3452.05 1906a6 6 0 0 1 6-6h284.47a6 6 0 0 1 6 6v131.97a6 6 0 0 1-6 6h-284.47a6 6 0 0 1-6-6z" stroke="#fff" stroke-width="2" fill="#dfe3e8"/><use xlink:href="#h" transform="translate(3495.356 2024.293)"/><use xlink:href="#i" transform="translate(3562.947 2024.293)"/><use xlink:href="#j" transform="translate(3659.907 2024.293)"/><path d="M3481.34 1932.72a6 6 0 0 1 6-6h215.9a6 6 0 0 1 6 6v50.97a6 6 0 0 1-6 6h-215.9a6 6 0 0 1-6-6z" stroke="#000" stroke-width="2" fill="#fff"/><use xlink:href="#h" transform="translate(3509.427 1964.078)"/><use xlink:href="#k" transform="translate(3577.018 1964.078)"/><path d="M3936.75 1526a6 6 0 0 1 6-6h270.67a6 6 0 0 1 6 6v134.05a6 6 0 0 1-6 6h-270.67a6 6 0 0 1-6-6z" stroke="#fff" stroke-width="2" fill="#fff"/><use xlink:href="#l" transform="translate(4035.847 1541.609)"/><path d="M3953 1558.55a6 6 0 0 1 6-6h236.6a6 6 0 0 1 6 6v87.14a6 6 0 0 1-6 6H3959a6 6 0 0 1-6-6z" fill="#dfe3e8"/><use xlink:href="#m" transform="translate(3972.236 1576.259)"/><use xlink:href="#n" transform="translate(4022.93 1576.259)"/><use xlink:href="#o" transform="translate(4069.21 1576.259)"/><use xlink:href="#p" transform="translate(4131.263 1576.259)"/><path d="M3728.74 1958.2H3817a6 6 0 0 0 6-6v-370.74a6 6 0 0 1 6-6h105.75" stroke="#6f7681" stroke-width="2" fill="none"/><path d="m3713.47 1958.2 14.27-4.63v9.27z" stroke="#6f7681" stroke-width="2" fill="#6f7681"/><path d="M3935.75 1576.46h-1.03v-2h1.03z" stroke="#6f7681" stroke-width=".05" fill="#6f7681"/><path d="M3810.86 1730a10 10 0 0 1 10-10h4.2a10 10 0 0 1 10 10v3.3a10 10 0 0 1-10 10h-4.2a10 10 0 0 1-10-10z" stroke="#000" stroke-width="2" fill="#fff"/><use xlink:href="#q" transform="translate(3818.885 1736.658)"/><path d="M3835.07 1720h139.04v28.67h-139.03z" fill="none"/><use xlink:href="#r" transform="translate(3845.018 1737.444)"/><use xlink:href="#s" transform="translate(3946.82 1737.444)"/><path d="M3980.18 1593.45a6 6 0 0 1 6-6h198.4a6 6 0 0 1 6 6v30.37a6 6 0 0 1-6 6h-198.4a6 6 0 0 1-6-6z" fill="#fff"/><path d="M3981.18 1593.45c0 .55-.45 1-1 1-.56 0-1-.45-1-1s.44-1 1-1c.55 0 1 .45 1 1zm1.75-4.24c0 .56-.44 1-1 1-.55 0-1-.44-1-1 0-.55.45-1 1-1 .56 0 1 .45 1 1zm4.25-1.75c0 .55-.45 1-1 1-.56 0-1-.45-1-1s.44-1 1-1c.55 0 1 .45 1 1zm3.96 0c0 .55-.44 1-1 1-.55 0-1-.45-1-1s.45-1 1-1c.56 0 1 .45 1 1zm3.97 0c0 .55-.44 1-1 1-.54 0-1-.45-1-1s.46-1 1-1c.56 0 1 .45 1 1zm3.98 0c0 .55-.45 1-1 1s-1-.45-1-1 .45-1 1-1 1 .45 1 1zm3.97 0c0 .55-.45 1-1 1s-1-.45-1-1 .45-1 1-1 1 .45 1 1zm3.97 0c0 .55-.45 1-1 1-.56 0-1-.45-1-1s.44-1 1-1c.55 0 1 .45 1 1zm3.97 0c0 .55-.46 1-1 1-.57 0-1-.45-1-1s.43-1 1-1c.54 0 1 .45 1 1zm3.95 0c0 .55-.44 1-1 1-.55 0-1-.45-1-1s.45-1 1-1c.56 0 1 .45 1 1zm3.97 0c0 .55-.45 1-1 1s-1-.45-1-1 .45-1 1-1 1 .45 1 1zm3.97 0c0 .55-.46 1-1 1-.56 0-1-.45-1-1s.44-1 1-1c.54 0 1 .45 1 1zm3.96 0c0 .55-.45 1-1 1-.56 0-1-.45-1-1s.44-1 1-1c.55 0 1 .45 1 1zm3.97 0c0 .55-.45 1-1 1-.56 0-1-.45-1-1s.44-1 1-1c.55 0 1 .45 1 1zm3.96 0c0 .55-.45 1-1 1-.56 0-1-.45-1-1s.44-1 1-1c.55 0 1 .45 1 1zm3.96 0c0 .55-.45 1-1 1s-1-.45-1-1 .45-1 1-1 1 .45 1 1zm3.97 0c0 .55-.45 1-1 1s-1-.45-1-1 .45-1 1-1 1 .45 1 1zm3.97 0c0 .55-.45 1-1 1s-1-.45-1-1 .45-1 1-1 1 .45 1 1zm3.97 0c0 .55-.45 1-1 1-.56 0-1-.45-1-1s.44-1 1-1c.55 0 1 .45 1 1zm3.97 0c0 .55-.45 1-1 1-.56 0-1-.45-1-1s.44-1 1-1c.55 0 1 .45 1 1zm3.96 0c0 .55-.44 1-1 1-.55 0-1-.45-1-1s.45-1 1-1c.56 0 1 .45 1 1zm3.97 0c0 .55-.45 1-1 1s-1-.45-1-1 .45-1 1-1 1 .45 1 1zm3.97 0c0 .55-.45 1-1 1s-1-.45-1-1 .45-1 1-1 1 .45 1 1zm3.97 0c0 .55-.44 1-1 1-.54 0-1-.45-1-1s.46-1 1-1c.56 0 1 .45 1 1zm3.98 0c0 .55-.45 1-1 1-.56 0-1-.45-1-1s.44-1 1-1c.55 0 1 .45 1 1zm3.96 0c0 .55-.44 1-1 1-.55 0-1-.45-1-1s.45-1 1-1c.56 0 1 .45 1 1zm3.97 0c0 .55-.43 1-1 1-.54 0-1-.45-1-1s.46-1 1-1c.57 0 1 .45 1 1zm3.98 0c0 .55-.45 1-1 1s-1-.45-1-1 .45-1 1-1 1 .45 1 1zm3.97 0c0 .55-.45 1-1 1s-1-.45-1-1 .45-1 1-1 1 .45 1 1zm3.97 0c0 .55-.45 1-1 1-.56 0-1-.45-1-1s.44-1 1-1c.55 0 1 .45 1 1zm3.97 0c0 .55-.46 1-1 1-.57 0-1-.45-1-1s.43-1 1-1c.54 0 1 .45 1 1zm3.95 0c0 .55-.44 1-1 1-.55 0-1-.45-1-1s.45-1 1-1c.56 0 1 .45 1 1zm3.97 0c0 .55-.45 1-1 1s-1-.45-1-1 .45-1 1-1 1 .45 1 1zm3.97 0c0 .55-.46 1-1 1-.56 0-1-.45-1-1s.44-1 1-1c.54 0 1 .45 1 1zm3.96 0c0 .55-.45 1-1 1s-1-.45-1-1 .45-1 1-1 1 .45 1 1zm3.97 0c0 .55-.45 1-1 1-.56 0-1-.45-1-1s.44-1 1-1c.55 0 1 .45 1 1zm3.97 0c0 .55-.45 1-1 1-.56 0-1-.45-1-1s.44-1 1-1c.55 0 1 .45 1 1zm3.96 0c0 .55-.45 1-1 1s-1-.45-1-1 .45-1 1-1 1 .45 1 1zm3.97 0c0 .55-.45 1-1 1s-1-.45-1-1 .45-1 1-1 1 .45 1 1zm3.97 0c0 .55-.45 1-1 1s-1-.45-1-1 .45-1 1-1 1 .45 1 1zm3.97 0c0 .55-.45 1-1 1-.56 0-1-.45-1-1s.44-1 1-1c.55 0 1 .45 1 1zm3.97 0c0 .55-.45 1-1 1-.56 0-1-.45-1-1s.44-1 1-1c.55 0 1 .45 1 1zm3.96 0c0 .55-.44 1-1 1-.55 0-1-.45-1-1s.45-1 1-1c.56 0 1 .45 1 1zm3.97 0c0 .55-.44 1-1 1-.55 0-1-.45-1-1s.45-1 1-1c.56 0 1 .45 1 1zm3.97 0c0 .55-.45 1-1 1s-1-.45-1-1 .45-1 1-1 1 .45 1 1zm3.97 0c0 .55-.44 1-1 1-.54 0-1-.45-1-1s.46-1 1-1c.56 0 1 .45 1 1zm3.98 0c0 .55-.45 1-1 1s-1-.45-1-1 .45-1 1-1 1 .45 1 1zm3.97 0c0 .55-.45 1-1 1-.56 0-1-.45-1-1s.44-1 1-1c.55 0 1 .45 1 1zm3.96 0c0 .55-.43 1-1 1-.54 0-1-.45-1-1s.46-1 1-1c.57 0 1 .45 1 1zm3.98 0c0 .55-.45 1-1 1s-1-.45-1-1 .45-1 1-1 1 .45 1 1zm3.97 0c0 .55-.45 1-1 1s-1-.45-1-1 .45-1 1-1 1 .45 1 1zm3.97 0c0 .55-.45 1-1 1s-1-.45-1-1 .45-1 1-1 1 .45 1 1zm3.97 0c0 .55-.46 1-1 1-.57 0-1-.45-1-1s.43-1 1-1c.54 0 1 .45 1 1zm4.23 1.76c0 .56-.45 1-1 1s-1-.44-1-1c0-.55.45-1 1-1s1 .45 1 1zm1.76 4.25c0 .55-.46 1-1 1-.57 0-1-.45-1-1s.43-1 1-1c.54 0 1 .45 1 1zm0 3.8c0 .55-.46 1-1 1-.57 0-1-.45-1-1 0-.56.43-1 1-1 .54 0 1 .44 1 1zm0 3.8c0 .55-.46 1-1 1-.57 0-1-.45-1-1 0-.56.43-1 1-1 .54 0 1 .44 1 1zm0 3.8c0 .54-.46 1-1 1-.57 0-1-.46-1-1 0-.56.43-1 1-1 .54 0 1 .44 1 1zm0 3.8c0 .54-.46 1-1 1-.57 0-1-.46-1-1 0-.57.43-1 1-1 .54 0 1 .43 1 1zm0 3.78c0 .56-.46 1-1 1-.57 0-1-.44-1-1 0-.55.43-1 1-1 .54 0 1 .45 1 1zm0 3.8c0 .55-.46 1-1 1-.57 0-1-.45-1-1s.43-1 1-1c.54 0 1 .45 1 1zm0 3.8c0 .55-.46 1-1 1-.57 0-1-.45-1-1 0-.56.43-1 1-1 .54 0 1 .44 1 1zm0 3.8c0 .55-.46 1-1 1-.57 0-1-.45-1-1 0-.56.43-1 1-1 .54 0 1 .44 1 1zm-1.77 4.24c0 .55-.45 1-1 1s-1-.45-1-1c0-.56.45-1 1-1s1 .44 1 1zm-4.24 1.75c0 .56-.46 1-1 1-.57 0-1-.44-1-1 0-.55.43-1 1-1 .54 0 1 .45 1 1zm-3.98 0c0 .56-.45 1-1 1s-1-.44-1-1c0-.55.45-1 1-1s1 .45 1 1zm-3.97 0c0 .56-.45 1-1 1s-1-.44-1-1c0-.55.45-1 1-1s1 .45 1 1zm-3.97 0c0 .56-.45 1-1 1s-1-.44-1-1c0-.55.45-1 1-1s1 .45 1 1zm-3.97 0c0 .56-.43 1-1 1-.54 0-1-.44-1-1 0-.55.46-1 1-1 .57 0 1 .45 1 1zm-3.95 0c0 .56-.45 1-1 1-.56 0-1-.44-1-1 0-.55.44-1 1-1 .55 0 1 .45 1 1zm-3.97 0c0 .56-.45 1-1 1s-1-.44-1-1c0-.55.45-1 1-1s1 .45 1 1zm-3.97 0c0 .56-.44 1-1 1-.54 0-1-.44-1-1 0-.55.46-1 1-1 .56 0 1 .45 1 1zm-3.96 0c0 .56-.45 1-1 1s-1-.44-1-1c0-.55.45-1 1-1s1 .45 1 1zm-3.97 0c0 .56-.44 1-1 1-.55 0-1-.44-1-1 0-.55.45-1 1-1 .56 0 1 .45 1 1zm-3.97 0c0 .56-.44 1-1 1-.55 0-1-.44-1-1 0-.55.45-1 1-1 .56 0 1 .45 1 1zm-3.96 0c0 .56-.45 1-1 1-.56 0-1-.44-1-1 0-.55.44-1 1-1 .55 0 1 .45 1 1zm-3.97 0c0 .56-.45 1-1 1-.56 0-1-.44-1-1 0-.55.44-1 1-1 .55 0 1 .45 1 1zm-3.97 0c0 .56-.45 1-1 1s-1-.44-1-1c0-.55.45-1 1-1s1 .45 1 1zm-3.97 0c0 .56-.45 1-1 1s-1-.44-1-1c0-.55.45-1 1-1s1 .45 1 1zm-3.97 0c0 .56-.45 1-1 1s-1-.44-1-1c0-.55.45-1 1-1s1 .45 1 1zm-3.97 0c0 .56-.45 1-1 1-.56 0-1-.44-1-1 0-.55.44-1 1-1 .55 0 1 .45 1 1zm-3.97 0c0 .56-.45 1-1 1-.56 0-1-.44-1-1 0-.55.44-1 1-1 .55 0 1 .45 1 1zm-3.97 0c0 .56-.45 1-1 1s-1-.44-1-1c0-.55.45-1 1-1s1 .45 1 1zm-3.97 0c0 .56-.46 1-1 1-.56 0-1-.44-1-1 0-.55.44-1 1-1 .54 0 1 .45 1 1zm-3.98 0c0 .56-.45 1-1 1s-1-.44-1-1c0-.55.45-1 1-1s1 .45 1 1zm-3.97 0c0 .56-.44 1-1 1-.55 0-1-.44-1-1 0-.55.45-1 1-1 .56 0 1 .45 1 1zm-3.96 0c0 .56-.46 1-1 1-.57 0-1-.44-1-1 0-.55.43-1 1-1 .54 0 1 .45 1 1zm-3.98 0c0 .56-.45 1-1 1-.56 0-1-.44-1-1 0-.55.44-1 1-1 .55 0 1 .45 1 1zm-3.97 0c0 .56-.45 1-1 1s-1-.44-1-1c0-.55.45-1 1-1s1 .45 1 1zm-3.97 0c0 .56-.45 1-1 1s-1-.44-1-1c0-.55.45-1 1-1s1 .45 1 1zm-3.97 0c0 .56-.43 1-1 1-.54 0-1-.44-1-1 0-.55.46-1 1-1 .57 0 1 .45 1 1zm-3.96 0c0 .56-.44 1-1 1-.55 0-1-.44-1-1 0-.55.45-1 1-1 .56 0 1 .45 1 1zm-3.96 0c0 .56-.45 1-1 1-.56 0-1-.44-1-1 0-.55.44-1 1-1 .55 0 1 .45 1 1zm-3.97 0c0 .56-.44 1-1 1-.54 0-1-.44-1-1 0-.55.46-1 1-1 .56 0 1 .45 1 1zm-3.96 0c0 .56-.45 1-1 1s-1-.44-1-1c0-.55.45-1 1-1s1 .45 1 1zm-3.97 0c0 .56-.45 1-1 1s-1-.44-1-1c0-.55.45-1 1-1s1 .45 1 1zm-3.97 0c0 .56-.44 1-1 1-.55 0-1-.44-1-1 0-.55.45-1 1-1 .56 0 1 .45 1 1zm-3.96 0c0 .56-.45 1-1 1-.56 0-1-.44-1-1 0-.55.44-1 1-1 .55 0 1 .45 1 1zm-3.97 0c0 .56-.45 1-1 1-.56 0-1-.44-1-1 0-.55.44-1 1-1 .55 0 1 .45 1 1zm-3.97 0c0 .56-.45 1-1 1s-1-.44-1-1c0-.55.45-1 1-1s1 .45 1 1zm-3.97 0c0 .56-.45 1-1 1s-1-.44-1-1c0-.55.45-1 1-1s1 .45 1 1zm-3.97 0c0 .56-.45 1-1 1s-1-.44-1-1c0-.55.45-1 1-1s1 .45 1 1zm-3.97 0c0 .56-.45 1-1 1-.56 0-1-.44-1-1 0-.55.44-1 1-1 .55 0 1 .45 1 1zm-3.97 0c0 .56-.45 1-1 1-.56 0-1-.44-1-1 0-.55.44-1 1-1 .55 0 1 .45 1 1zm-3.97 0c0 .56-.45 1-1 1-.56 0-1-.44-1-1 0-.55.44-1 1-1 .55 0 1 .45 1 1zm-3.97 0c0 .56-.46 1-1 1-.56 0-1-.44-1-1 0-.55.44-1 1-1 .54 0 1 .45 1 1zm-3.98 0c0 .56-.45 1-1 1s-1-.44-1-1c0-.55.45-1 1-1s1 .45 1 1zm-3.97 0c0 .56-.44 1-1 1-.55 0-1-.44-1-1 0-.55.45-1 1-1 .56 0 1 .45 1 1zm-3.96 0c0 .56-.46 1-1 1-.57 0-1-.44-1-1 0-.55.43-1 1-1 .54 0 1 .45 1 1zm-3.98 0c0 .56-.45 1-1 1-.56 0-1-.44-1-1 0-.55.44-1 1-1 .55 0 1 .45 1 1zm-3.97 0c0 .56-.45 1-1 1s-1-.44-1-1c0-.55.45-1 1-1s1 .45 1 1zm-3.97 0c0 .56-.45 1-1 1s-1-.44-1-1c0-.55.45-1 1-1s1 .45 1 1zm-3.97 0c0 .56-.44 1-1 1-.54 0-1-.44-1-1 0-.55.46-1 1-1 .56 0 1 .45 1 1zm-3.96 0c0 .56-.44 1-1 1-.55 0-1-.44-1-1 0-.55.45-1 1-1 .56 0 1 .45 1 1zm-3.96 0c0 .56-.45 1-1 1-.56 0-1-.44-1-1 0-.55.44-1 1-1 .55 0 1 .45 1 1zm-4.25-1.75c0 .55-.44 1-1 1-.55 0-1-.45-1-1 0-.56.45-1 1-1 .56 0 1 .44 1 1zm-1.75-4.25c0 .56-.45 1-1 1-.56 0-1-.44-1-1 0-.55.44-1 1-1 .55 0 1 .45 1 1zm0-3.8c0 .56-.45 1-1 1-.56 0-1-.44-1-1 0-.55.44-1 1-1 .55 0 1 .45 1 1zm0-3.8c0 .56-.45 1-1 1-.56 0-1-.44-1-1 0-.54.44-1 1-1 .55 0 1 .46 1 1zm0-3.8c0 .57-.45 1-1 1-.56 0-1-.43-1-1 0-.54.44-1 1-1 .55 0 1 .46 1 1zm0-3.78c0 .55-.45 1-1 1-.56 0-1-.45-1-1 0-.56.44-1 1-1 .55 0 1 .44 1 1zm0-3.8c0 .55-.45 1-1 1-.56 0-1-.45-1-1s.44-1 1-1c.55 0 1 .45 1 1zm0-3.8c0 .56-.45 1-1 1-.56 0-1-.44-1-1 0-.55.44-1 1-1 .55 0 1 .45 1 1zm0-3.8c0 .56-.45 1-1 1-.56 0-1-.44-1-1 0-.55.44-1 1-1 .55 0 1 .45 1 1z"/><use xlink:href="#t" transform="translate(4024.999 1612.4)"/><use xlink:href="#u" transform="translate(4062.338 1612.4)"/><path d="M3967.94 1605.13a10 10 0 0 1 10-10h4.2a10 10 0 0 1 10 10v3.3a10 10 0 0 1-10 10h-4.2a10 10 0 0 1-10-10z" stroke="#000" stroke-width="2" fill="#fff"/><use xlink:href="#v" transform="translate(3975.952 1611.786)"/><path d="M4205.2 1582.94a10 10 0 0 1 10-10h9.07a10 10 0 0 1 10 10v3.3a10 10 0 0 1-10 10h-9.07a10 10 0 0 1-10-10z" stroke="#000" stroke-width="2" fill="#fff"/><use xlink:href="#w" transform="translate(4215.227 1589.597)"/><path d="M4234.27 1564.6h74.85v40h-74.85z" fill="none"/><use xlink:href="#x" transform="translate(4239.275 1587.764)"/><path d="M3452.05 1528.08a6 6 0 0 1 6-6h284.47a6 6 0 0 1 6 6v131.97a6 6 0 0 1-6 6h-284.47a6 6 0 0 1-6-6z" stroke="#fff" stroke-width="2" fill="#dfe3e8"/><use xlink:href="#a" transform="translate(3473.187 1556.69)"/><use xlink:href="#y" transform="translate(3568.547 1556.69)"/><use xlink:href="#z" transform="translate(3585.116 1556.69)"/><use xlink:href="#j" transform="translate(3682.076 1556.69)"/><path d="M3485.1 1584.86a6 6 0 0 1 6-6H3707a6 6 0 0 1 6 6v50.97a6 6 0 0 1-6 6h-215.9a6 6 0 0 1-6-6z" stroke="#000" stroke-width="2" fill="#fff"/><use xlink:href="#h" transform="translate(3504.368 1616.218)"/><use xlink:href="#A" transform="translate(3571.959 1616.218)"/><use xlink:href="#B" transform="translate(3622.981 1616.218)"/><path d="M3275.05 1602.58h190.55" stroke="#6f7681" stroke-width="2" fill="none"/><path d="M3275.07 1603.58h-1.02v-2h1.02z" stroke="#6f7681" stroke-width=".05" fill="#6f7681"/><path d="m3480.87 1602.58-14.27 4.64v-9.27z" stroke="#6f7681" stroke-width="2" fill="#6f7681"/><path d="M4378.4 1593.45a6 6 0 0 1 6-6h198.42a6 6 0 0 1 6 6v30.37a6 6 0 0 1-6 6h-198.4a6 6 0 0 1-6-6z" fill="#fff"/><path d="M4379.4 1593.45c0 .55-.44 1-1 1-.54 0-1-.45-1-1s.46-1 1-1c.56 0 1 .45 1 1zm1.77-4.24c0 .56-.45 1-1 1-.56 0-1-.44-1-1 0-.55.44-1 1-1 .55 0 1 .45 1 1zm4.24-1.75c0 .55-.44 1-1 1-.54 0-1-.45-1-1s.46-1 1-1c.56 0 1 .45 1 1zm3.98 0c0 .55-.45 1-1 1-.56 0-1-.45-1-1s.44-1 1-1c.55 0 1 .45 1 1zm3.97 0c0 .55-.45 1-1 1-.56 0-1-.45-1-1s.44-1 1-1c.55 0 1 .45 1 1zm3.96 0c0 .55-.43 1-1 1-.54 0-1-.45-1-1s.46-1 1-1c.57 0 1 .45 1 1zm3.98 0c0 .55-.45 1-1 1s-1-.45-1-1 .45-1 1-1 1 .45 1 1zm3.97 0c0 .55-.45 1-1 1s-1-.45-1-1 .45-1 1-1 1 .45 1 1zm3.97 0c0 .55-.45 1-1 1s-1-.45-1-1 .45-1 1-1 1 .45 1 1zm3.97 0c0 .55-.46 1-1 1-.57 0-1-.45-1-1s.43-1 1-1c.54 0 1 .45 1 1zm3.95 0c0 .55-.44 1-1 1-.55 0-1-.45-1-1s.45-1 1-1c.56 0 1 .45 1 1zm3.97 0c0 .55-.44 1-1 1-.55 0-1-.45-1-1s.45-1 1-1c.56 0 1 .45 1 1zm3.97 0c0 .55-.46 1-1 1-.56 0-1-.45-1-1s.44-1 1-1c.54 0 1 .45 1 1zm3.96 0c0 .55-.45 1-1 1s-1-.45-1-1 .45-1 1-1 1 .45 1 1zm3.97 0c0 .55-.45 1-1 1s-1-.45-1-1 .45-1 1-1 1 .45 1 1zm3.97 0c0 .55-.45 1-1 1-.56 0-1-.45-1-1s.44-1 1-1c.55 0 1 .45 1 1zm3.96 0c0 .55-.44 1-1 1-.55 0-1-.45-1-1s.45-1 1-1c.56 0 1 .45 1 1zm3.97 0c0 .55-.45 1-1 1s-1-.45-1-1 .45-1 1-1 1 .45 1 1zm3.97 0c0 .55-.45 1-1 1s-1-.45-1-1 .45-1 1-1 1 .45 1 1zm3.97 0c0 .55-.45 1-1 1s-1-.45-1-1 .45-1 1-1 1 .45 1 1zm3.97 0c0 .55-.45 1-1 1-.56 0-1-.45-1-1s.44-1 1-1c.55 0 1 .45 1 1zm3.97 0c0 .55-.44 1-1 1-.55 0-1-.45-1-1s.45-1 1-1c.56 0 1 .45 1 1zm3.97 0c0 .55-.44 1-1 1-.55 0-1-.45-1-1s.45-1 1-1c.56 0 1 .45 1 1zm3.97 0c0 .55-.45 1-1 1s-1-.45-1-1 .45-1 1-1 1 .45 1 1zm3.97 0c0 .55-.44 1-1 1-.54 0-1-.45-1-1s.46-1 1-1c.56 0 1 .45 1 1zm3.98 0c0 .55-.45 1-1 1s-1-.45-1-1 .45-1 1-1 1 .45 1 1zm3.97 0c0 .55-.45 1-1 1-.56 0-1-.45-1-1s.44-1 1-1c.55 0 1 .45 1 1zm3.97 0c0 .55-.45 1-1 1-.56 0-1-.45-1-1s.44-1 1-1c.55 0 1 .45 1 1zm3.96 0c0 .55-.44 1-1 1-.55 0-1-.45-1-1s.45-1 1-1c.56 0 1 .45 1 1zm3.97 0c0 .55-.45 1-1 1s-1-.45-1-1 .45-1 1-1 1 .45 1 1zm3.97 0c0 .55-.45 1-1 1s-1-.45-1-1 .45-1 1-1 1 .45 1 1zm3.97 0c0 .55-.46 1-1 1-.56 0-1-.45-1-1s.44-1 1-1c.54 0 1 .45 1 1zm3.96 0c0 .55-.45 1-1 1-.56 0-1-.45-1-1s.44-1 1-1c.55 0 1 .45 1 1zm3.96 0c0 .55-.44 1-1 1-.55 0-1-.45-1-1s.45-1 1-1c.56 0 1 .45 1 1zm3.97 0c0 .55-.46 1-1 1-.56 0-1-.45-1-1s.44-1 1-1c.54 0 1 .45 1 1zm3.96 0c0 .55-.45 1-1 1s-1-.45-1-1 .45-1 1-1 1 .45 1 1zm3.97 0c0 .55-.45 1-1 1s-1-.45-1-1 .45-1 1-1 1 .45 1 1zm3.97 0c0 .55-.45 1-1 1-.56 0-1-.45-1-1s.44-1 1-1c.55 0 1 .45 1 1zm3.97 0c0 .55-.45 1-1 1-.56 0-1-.45-1-1s.44-1 1-1c.55 0 1 .45 1 1zm3.96 0c0 .55-.44 1-1 1-.55 0-1-.45-1-1s.45-1 1-1c.56 0 1 .45 1 1zm3.97 0c0 .55-.45 1-1 1s-1-.45-1-1 .45-1 1-1 1 .45 1 1zm3.97 0c0 .55-.45 1-1 1s-1-.45-1-1 .45-1 1-1 1 .45 1 1zm3.97 0c0 .55-.45 1-1 1-.56 0-1-.45-1-1s.44-1 1-1c.55 0 1 .45 1 1zm3.97 0c0 .55-.44 1-1 1-.55 0-1-.45-1-1s.45-1 1-1c.56 0 1 .45 1 1zm3.97 0c0 .55-.44 1-1 1-.55 0-1-.45-1-1s.45-1 1-1c.56 0 1 .45 1 1zm3.97 0c0 .55-.44 1-1 1-.55 0-1-.45-1-1s.45-1 1-1c.56 0 1 .45 1 1zm3.97 0c0 .55-.44 1-1 1-.54 0-1-.45-1-1s.46-1 1-1c.56 0 1 .45 1 1zm3.98 0c0 .55-.45 1-1 1s-1-.45-1-1 .45-1 1-1 1 .45 1 1zm3.97 0c0 .55-.45 1-1 1s-1-.45-1-1 .45-1 1-1 1 .45 1 1zm3.97 0c0 .55-.45 1-1 1-.56 0-1-.45-1-1s.44-1 1-1c.55 0 1 .45 1 1zm3.96 0c0 .55-.44 1-1 1-.55 0-1-.45-1-1s.45-1 1-1c.56 0 1 .45 1 1zm3.97 0c0 .55-.45 1-1 1s-1-.45-1-1 .45-1 1-1 1 .45 1 1zm3.97 0c0 .55-.45 1-1 1s-1-.45-1-1 .45-1 1-1 1 .45 1 1zm4.24 1.76c0 .56-.45 1-1 1s-1-.44-1-1c0-.55.45-1 1-1s1 .45 1 1zm1.76 4.25c0 .55-.45 1-1 1s-1-.45-1-1 .45-1 1-1 1 .45 1 1zm0 3.8c0 .55-.45 1-1 1s-1-.45-1-1c0-.56.45-1 1-1s1 .44 1 1zm0 3.8c0 .55-.45 1-1 1s-1-.45-1-1c0-.56.45-1 1-1s1 .44 1 1zm0 3.8c0 .54-.45 1-1 1s-1-.46-1-1c0-.56.45-1 1-1s1 .44 1 1zm0 3.8c0 .54-.45 1-1 1s-1-.46-1-1c0-.57.45-1 1-1s1 .43 1 1zm0 3.78c0 .56-.45 1-1 1s-1-.44-1-1c0-.55.45-1 1-1s1 .45 1 1zm0 3.8c0 .55-.45 1-1 1s-1-.45-1-1 .45-1 1-1 1 .45 1 1zm0 3.8c0 .55-.45 1-1 1s-1-.45-1-1c0-.56.45-1 1-1s1 .44 1 1zm0 3.8c0 .55-.45 1-1 1s-1-.45-1-1c0-.56.45-1 1-1s1 .44 1 1zm-1.76 4.24c0 .55-.45 1-1 1s-1-.45-1-1c0-.56.45-1 1-1s1 .44 1 1zm-4.24 1.75c0 .56-.45 1-1 1s-1-.44-1-1c0-.55.45-1 1-1s1 .45 1 1zm-3.97 0c0 .56-.45 1-1 1s-1-.44-1-1c0-.55.45-1 1-1s1 .45 1 1zm-3.97 0c0 .56-.44 1-1 1-.55 0-1-.44-1-1 0-.55.45-1 1-1 .56 0 1 .45 1 1zm-3.97 0c.02.56-.43 1-.98 1-.56 0-1-.44-1-1 0-.55.44-1 1-1 .55 0 1 .45 1 1zm-3.95 0c0 .56-.45 1-1 1s-1-.44-1-1c0-.55.45-1 1-1s1 .45 1 1zm-3.97 0c0 .56-.45 1-1 1s-1-.44-1-1c0-.55.45-1 1-1s1 .45 1 1zm-3.97 0c0 .56-.44 1-1 1-.54 0-1-.44-1-1 0-.55.46-1 1-1 .56 0 1 .45 1 1zm-3.96 0c0 .56-.44 1-1 1-.55 0-1-.44-1-1 0-.55.45-1 1-1 .56 0 1 .45 1 1zm-3.97 0c0 .56-.44 1-1 1-.55 0-1-.44-1-1 0-.55.45-1 1-1 .56 0 1 .45 1 1zm-3.96 0c0 .56-.44 1-1 1-.55 0-1-.44-1-1 0-.55.45-1 1-1 .56 0 1 .45 1 1zm-3.96 0c0 .56-.45 1-1 1-.56 0-1-.44-1-1 0-.55.44-1 1-1 .55 0 1 .45 1 1zm-3.97 0c0 .56-.45 1-1 1s-1-.44-1-1c0-.55.45-1 1-1s1 .45 1 1zm-3.97 0c0 .56-.45 1-1 1s-1-.44-1-1c0-.55.45-1 1-1s1 .45 1 1zm-3.97 0c0 .56-.44 1-1 1-.55 0-1-.44-1-1 0-.55.45-1 1-1 .56 0 1 .45 1 1zm-3.96 0c0 .56-.45 1-1 1-.56 0-1-.44-1-1 0-.55.44-1 1-1 .55 0 1 .45 1 1zm-3.97 0c0 .56-.45 1-1 1-.56 0-1-.44-1-1 0-.55.44-1 1-1 .55 0 1 .45 1 1zm-3.97 0c0 .56-.45 1-1 1s-1-.44-1-1c0-.55.45-1 1-1s1 .45 1 1zm-3.97 0c0 .56-.45 1-1 1s-1-.44-1-1c0-.55.45-1 1-1s1 .45 1 1zm-3.97 0c0 .56-.46 1-1 1-.56 0-1-.44-1-1 0-.55.44-1 1-1 .54 0 1 .45 1 1zm-3.98 0c0 .56-.44 1-1 1-.55 0-1-.44-1-1 0-.55.45-1 1-1 .56 0 1 .45 1 1zm-3.96 0c0 .56-.45 1-1 1-.56 0-1-.44-1-1 0-.55.44-1 1-1 .55 0 1 .45 1 1zm-3.97 0c0 .56-.46 1-1 1-.56 0-1-.44-1-1 0-.55.44-1 1-1 .54 0 1 .45 1 1zm-3.98 0c0 .56-.45 1-1 1s-1-.44-1-1c0-.55.45-1 1-1s1 .45 1 1zm-3.97 0c0 .56-.45 1-1 1s-1-.44-1-1c0-.55.45-1 1-1s1 .45 1 1zm-3.97 0c0 .56-.44 1-1 1-.55 0-1-.44-1-1 0-.55.45-1 1-1 .56 0 1 .45 1 1zm-3.97 0c0 .56-.43 1-1 1-.54 0-1-.44-1-1 0-.55.46-1 1-1 .57 0 1 .45 1 1zm-3.95 0c0 .56-.45 1-1 1-.56 0-1-.44-1-1 0-.55.44-1 1-1 .55 0 1 .45 1 1zm-3.97 0c0 .56-.45 1-1 1s-1-.44-1-1c0-.55.45-1 1-1s1 .45 1 1zm-3.97 0c0 .56-.44 1-1 1-.54 0-1-.44-1-1 0-.55.46-1 1-1 .56 0 1 .45 1 1zm-3.96 0c0 .56-.45 1-1 1s-1-.44-1-1c0-.55.45-1 1-1s1 .45 1 1zm-3.97 0c0 .56-.44 1-1 1-.55 0-1-.44-1-1 0-.55.45-1 1-1 .56 0 1 .45 1 1zm-3.97 0c0 .56-.44 1-1 1-.55 0-1-.44-1-1 0-.55.45-1 1-1 .56 0 1 .45 1 1zm-3.96 0c0 .56-.45 1-1 1-.56 0-1-.44-1-1 0-.55.44-1 1-1 .55 0 1 .45 1 1zm-3.97 0c0 .56-.45 1-1 1s-1-.44-1-1c0-.55.45-1 1-1s1 .45 1 1zm-3.97 0c0 .56-.45 1-1 1s-1-.44-1-1c0-.55.45-1 1-1s1 .45 1 1zm-3.97 0c0 .56-.45 1-1 1s-1-.44-1-1c0-.55.45-1 1-1s1 .45 1 1zm-3.97 0c0 .56-.44 1-1 1-.55 0-1-.44-1-1 0-.55.45-1 1-1 .56 0 1 .45 1 1zm-3.96 0c0 .56-.45 1-1 1-.56 0-1-.44-1-1 0-.55.44-1 1-1 .55 0 1 .45 1 1zm-3.97 0c0 .56-.45 1-1 1s-1-.44-1-1c0-.55.45-1 1-1s1 .45 1 1zm-3.97 0c0 .56-.45 1-1 1s-1-.44-1-1c0-.55.45-1 1-1s1 .45 1 1zm-3.97 0c0 .56-.46 1-1 1-.56 0-1-.44-1-1 0-.55.44-1 1-1 .54 0 1 .45 1 1zm-3.98 0c0 .56-.44 1-1 1-.55 0-1-.44-1-1 0-.55.45-1 1-1 .56 0 1 .45 1 1zm-3.97 0c0 .56-.44 1-1 1-.55 0-1-.44-1-1 0-.55.45-1 1-1 .56 0 1 .45 1 1zm-3.96 0c0 .56-.46 1-1 1-.57 0-1-.44-1-1 0-.55.43-1 1-1 .54 0 1 .45 1 1zm-3.98 0c0 .56-.45 1-1 1s-1-.44-1-1c0-.55.45-1 1-1s1 .45 1 1zm-3.97 0c0 .56-.45 1-1 1s-1-.44-1-1c0-.55.45-1 1-1s1 .45 1 1zm-3.97 0c0 .56-.45 1-1 1s-1-.44-1-1c0-.55.45-1 1-1s1 .45 1 1zm-3.97 0c0 .56-.43 1-1 1-.54 0-1-.44-1-1 0-.55.46-1 1-1 .57 0 1 .45 1 1zm-3.95 0c0 .56-.45 1-1 1-.56 0-1-.44-1-1 0-.55.44-1 1-1 .55 0 1 .45 1 1zm-3.97 0c0 .56-.45 1-1 1-.56 0-1-.44-1-1 0-.55.44-1 1-1 .55 0 1 .45 1 1zm-3.97 0c0 .56-.44 1-1 1-.54 0-1-.44-1-1 0-.55.46-1 1-1 .56 0 1 .45 1 1zm-4.23-1.75c0 .55-.45 1-1 1-.56 0-1-.45-1-1 0-.56.44-1 1-1 .55 0 1 .44 1 1zm-1.76-4.25c0 .56-.44 1-1 1-.54 0-1-.44-1-1 0-.55.46-1 1-1 .56 0 1 .45 1 1zm0-3.8c0 .56-.44 1-1 1-.54 0-1-.44-1-1 0-.55.46-1 1-1 .56 0 1 .45 1 1zm0-3.8c0 .56-.44 1-1 1-.54 0-1-.44-1-1 0-.54.46-1 1-1 .56 0 1 .46 1 1zm0-3.8c0 .57-.44 1-1 1-.54 0-1-.43-1-1 0-.54.46-1 1-1 .56 0 1 .46 1 1zm0-3.78c0 .55-.44 1-1 1-.54 0-1-.45-1-1 0-.56.46-1 1-1 .56 0 1 .44 1 1zm0-3.8c0 .55-.44 1-1 1-.54 0-1-.45-1-1s.46-1 1-1c.56 0 1 .45 1 1zm0-3.8c0 .56-.44 1-1 1-.54 0-1-.44-1-1 0-.55.46-1 1-1 .56 0 1 .45 1 1zm0-3.8c0 .56-.44 1-1 1-.54 0-1-.44-1-1 0-.55.46-1 1-1 .56 0 1 .45 1 1z"/><use xlink:href="#t" transform="translate(4413.898 1612.4)"/><use xlink:href="#C" transform="translate(4451.237 1612.4)"/><path d="M4192.6 1608.64h166.3" stroke="#6f7681" stroke-width="2" fill="none"/><path d="M4192.6 1609.64h-1v-2h1z" stroke="#6f7681" stroke-width=".05" fill="#6f7681"/><path d="m4374.17 1608.64-14.26 4.63V1604z" stroke="#6f7681" stroke-width="2" fill="#6f7681"/><path d="M3599.05 1643.83v79.97" stroke="#6f7681" stroke-width="2" fill="none"/><path d="M3600.05 1643.85h-2v-1.02h2z" stroke="#6f7681" stroke-width=".05" fill="#6f7681"/><path d="m3599.05 1739.07-4.63-14.27h9.27z" stroke="#6f7681" stroke-width="2" fill="#6f7681"/><path d="M3486.34 1749.3a6 6 0 0 1 6-6h215.9a6 6 0 0 1 6 6v48.45a6 6 0 0 1-6 6h-215.9a6 6 0 0 1-6-6z" stroke="#fff" stroke-width="2" fill="#fff"/><use xlink:href="#h" transform="translate(3521.544 1780.228)"/><use xlink:href="#D" transform="translate(3589.136 1780.228)"/><path d="M3600.28 1805.75v74.75" stroke="#6f7681" stroke-width="2" fill="none"/><path d="M3601.28 1805.78h-2v-1.03h2z" stroke="#6f7681" stroke-width=".05" fill="#6f7681"/><path d="m3600.28 1895.76-4.63-14.26h9.27z" stroke="#6f7681" stroke-width="2" fill="#6f7681"/><path d="M3473.44 1770a10 10 0 0 1 10-10h3.5a10 10 0 0 1 10 10v3.3a10 10 0 0 1-10 10h-3.5a10 10 0 0 1-10-10z" stroke="#000" stroke-width="2" fill="#fff"/><use xlink:href="#E" transform="translate(3480.963 1776.658)"/><path d="M3294.76 1760h171.22v60.1h-171.22z" fill="none"/><use xlink:href="#F" transform="translate(3303.828 1777.444)"/><use xlink:href="#G" transform="translate(3395.26 1777.444)"/><use xlink:href="#H" transform="translate(3403.125 1796.111)"/><defs><path d="M76 0v-686h535v111H206v169h361v111H206v184h411V0H76" id="I"/><path d="M508-197C505-58 424 10 284 12 110 12 38-87 39-263c-1-177 72-274 245-275 142 2 222 67 224 209H384c0-72-31-110-102-110-98 1-119 79-118 183 1 99 25 169 123 169 70 0 102-41 103-110h118" id="J"/><path d="M559-263c0 181-81 275-260 275C121 12 38-82 39-263c-1-182 82-275 260-275 179 0 261 94 260 275zm-394-7c-1 110 27 183 134 182 107 1 135-72 134-182-1-103-32-169-134-168-102-1-133 65-134 168" id="K"/><path d="M503-156C503-26 401 12 270 12 138 12 38-35 41-166h120c-2 64 53 80 114 82 49-2 104-10 104-56 0-65-86-64-142-82-87-28-185-47-185-159 0-117 103-156 224-156 119 0 217 40 211 164H368c0-54-44-65-98-69-59-5-123 35-80 81 105 66 313 34 313 205" id="L"/><path d="M214 166c-40 24-124 18-165 4V83c85 11 139-22 161-83L5-526h128c49 131 106 252 141 398h5c35-138 80-266 121-398h124C453-334 391-133 314 53c-24 48-53 90-100 113" id="M"/><path d="M289-4c-23 8-54 15-85 16-87 1-128-52-128-132v-306H13v-100h66l22-147h97v147h91v100h-91v294c-3 48 44 46 91 44v84" id="N"/><path d="M522-184C519-47 427 8 291 12 115 12 38-85 39-263c-1-179 76-275 252-275 178 0 239 115 231 305H164c4 91 33 150 128 149 67-1 108-33 110-100h120zM395-319c-1-75-29-122-104-122-84-1-117 45-125 122h229" id="O"/><path d="M290-431c-67 4-103 54-103 125V0H65v-526h102l10 70h7c33-45 77-81 152-82 70 1 115 29 138 82h7c33-46 81-81 158-82 109 1 162 62 161 177V0H678v-336c0-61-23-95-82-95-67 4-102 55-102 125V0H372v-336c0-61-23-95-82-95" id="P"/><path d="M76 0v-686h124c106 148 214 293 318 442 7 7 3 17 13 16v-458h125V0H533C425-155 309-302 206-462h-5V0H76" id="Q"/><path d="M681-252C679-71 557 12 378 12 152 12 44-111 45-343c-3-231 114-355 333-355 178 0 301 84 303 265H548c-2-102-67-153-168-155-151 0-201 98-201 256 0 147 56 234 201 234 104-1 172-50 173-154h128" id="R"/><path d="M304-431c-72 3-117 51-117 125V0H65v-526h102l10 70h7c36-46 87-82 168-82 114 2 172 63 171 183V0H400v-333c1-67-31-98-96-98" id="S"/><path d="M400-70c-36 46-87 82-168 82C121 9 61-47 61-171v-355h122v333c-1 67 31 98 96 98 72-3 117-52 117-125v-306h122V0H417l-10-70h-7" id="T"/><path d="M352-414c-112-10-165 38-165 143V0H65v-526h102l10 83h7c18-64 84-117 168-86v115" id="U"/><path d="M332-381c-4 144 41 246 176 246 165 0 233-124 264-281l151-777H612l30-156h501L963-420C908-169 772 20 477 20c-237 0-341-123-338-370" id="V"/><path d="M724-1102c292 0 423 159 388 460-35 307-154 537-400 628-65 24-136 34-212 34-254-2-388-131-388-387 0-255 97-480 226-595 103-92 231-140 386-140zM381-747C294-559 211-98 524-113c294-14 359-254 399-525 28-194-32-337-222-331-174 5-260 94-320 222" id="W"/><path d="M809-1104c212 0 310 122 306 343-4 250-95 524-208 640C818-30 715 20 589 20c-161 0-261-59-300-184-11 55-26 116-41 164H74c18-68 35-148 49-223l245-1261h180c-39 193-73 391-116 580h4c79-124 190-200 373-200zM348-430c-24 189 33 326 217 317 240-12 292-213 339-427 14-65 21-126 22-196 0-150-52-229-193-229-257 0-320 212-371 441-7 34-11 65-14 94" id="X"/><path d="M97-607c83-11 166-45 229-79h60v586h152V0H98v-100h165v-432H97v-75" id="Y"/><path fill="#fff" d="M84-151c13-25 34-51 72-40l-8 41C67-170 71-64 56 0H6l36-190h47" id="Z"/><path fill="#fff" d="M114-194c63-2 87 48 72 110H63c-3 28 1 55 31 54 21-1 32-13 37-29l44 13C160-14 137 4 91 4 41 4 11-22 11-73c0-71 33-119 103-121zm30 77c14-47-50-61-67-22-3 6-6 13-8 22h75" id="aa"/><path fill="#fff" d="M45-171c29-32 103-29 114 14 2-11 5-23 8-33h47L176-2c-3 70-92 96-155 64C9 56 1 42-1 25l50-5c2 28 48 27 63 11 13-13 20-45 21-66-13 20-30 35-62 36-87 3-60-134-26-172zM94-35c41-3 55-43 55-86 0-24-12-39-35-39-43 0-51 48-51 90 0 22 9 37 31 35" id="ab"/><path fill="#fff" d="m50-224 7-37h49l-7 37H50zM6 0l37-190h49L55 0H6" id="ac"/><path fill="#fff" d="M144-137c-1-29-70-35-71-2 16 41 103 10 103 80C176 9 79 16 32-9 18-17 9-31 4-48l44-6c3 32 80 36 82 1-15-42-103-11-103-82 0-77 157-79 161-8" id="ad"/><path fill="#fff" d="M72-63c-8 23 5 39 32 30L98-1C54 14 12-6 23-64l18-93H15l7-33h28l24-45h31l-8 45h35l-6 33H90" id="ae"/><path fill="#fff" d="m50-224 7-37h49l-7 37H50zm1 246C45 64 7 85-39 71l7-33c23 5 33-8 36-27l39-201h49" id="af"/><path fill="#fff" d="M124-194c51 0 84 22 84 74C207-44 167 4 94 4 43 4 11-23 11-74c0-74 41-120 113-120zM99-30c46 0 58-42 58-86 0-27-11-44-37-44-44 0-55 40-57 84-1 27 10 45 36 46" id="ag"/><path fill="#fff" d="M87-160c15-17 32-34 63-34 99 1 59 172-1 192-36 12-78 0-87-29L54 0H6l52-261h49zm71 38c0-24-5-37-29-37-46 0-55 46-57 89-1 25 12 40 35 40 44 0 51-50 51-92" id="ah"/><path d="m5 0 267-686h164L704 0H563l-55-146H194L139 0H5zm230-256h231c-38-105-79-207-113-317h-5c-34 111-75 211-113 317" id="ai"/><path d="M368-60c-36 44-88 73-168 72C103 9 33-31 34-136c5-164 161-179 328-183 6-78-9-128-88-123-57 1-98 14-95 72H61c-8-124 92-166 212-168 127 1 211 46 211 167v248c-1 35 31 37 67 35v84c-19 7-45 16-76 15-55-1-88-28-101-71h-6zm-209-88c0 43 33 60 78 60 88-2 130-53 125-147-92 4-203 2-203 87" id="aj"/><path d="M76 0v-686h130v573h344V0H76" id="ak"/><path d="M737-343c0 232-118 353-346 355C164 10 45-111 45-343c0-233 119-355 346-355 228 0 346 122 346 355zm-558-10c-3 160 59 254 212 255 153-1 216-95 213-255-3-148-66-234-213-235-147 1-209 87-212 235" id="al"/><path d="M304-431c-72 3-117 51-117 125V0H65v-723h122v257h7c34-41 83-71 158-72 114 2 172 63 171 183V0H400v-333c1-67-31-98-96-98" id="am"/><path d="M645-466c0 144-84 221-232 222H206V0H76v-686h344c146 1 225 77 225 220zm-131 0c-1-70-35-108-105-109H206v220h203c67 1 106-43 105-111" id="an"/><path d="M177-220c-8 93 68 121 158 122 79-2 150-12 156-85-13-97-132-97-215-125-104-35-214-66-214-200 0-145 126-190 275-190 153 0 269 54 268 211H476c2-78-64-101-140-101-71 0-137 11-143 74 17 89 136 86 215 114 103 36 214 66 214 199C622-39 495 12 332 12S40-50 46-220h131" id="ao"/><path d="M76 0v-686h130v279h320v-279h130V0H526v-295H206V0H76" id="ap"/><path d="M409-70c-29 50-86 81-161 82C94 8 39-100 39-264c0-159 56-267 202-274 76 0 127 27 158 73h6v-258h122V0H426l-10-70h-7zM165-269c-1 104 19 178 121 176 96-1 120-75 119-175-1-94-27-164-119-165-98-1-120 65-121 164" id="aq"/><path d="M160 0 3-526h126c31 128 68 251 94 384h6c25-133 58-256 88-384h131c31 128 66 251 92 384h6c25-133 61-256 92-384h117L599 0H470c-29-127-63-250-87-383-12-1-4 12-9 25-23 121-58 240-85 358H160" id="ar"/><path d="M663-473c-1 97-47 165-118 196L687 0H545L419-255H206V0H76v-686h361c145 0 224 72 226 213zm-132 0c-1-67-37-101-104-102H206v211h221c67 1 104-42 104-109" id="as"/><path d="M65-607v-116h122v116H65zM65 0v-526h122V0H65" id="at"/><path d="M529-184C525-50 427 12 290 12 139 12 42-57 44-209h124c-6 82 41 121 118 121 71-1 118-32 117-105 3-100-81-111-182-106v-100c96 8 169-13 168-103 0-65-38-95-101-96-70 1-110 36-105 113H59c-6-146 90-213 227-213 133 0 226 57 229 188 0 86-52 125-110 154v4c68 21 126 77 124 168" id="au"/><path fill="#fff" d="M166-52c-4 17 5 29 24 23l-3 27c-30 11-74 1-67-34C105-15 91 4 56 4 23 4 3-15 2-49c0-64 63-67 128-67 10-22 3-53-29-45-13 3-22 10-25 24l-46-5c5-64 156-77 153 0-1 33-11 60-17 90zM97-88c-44-9-64 57-19 57 31 0 42-28 47-57H97" id="av"/><path fill="#fff" d="M67-101c-8 29-7 73 27 71 23-2 32-16 39-37l48 9C170-19 141 4 91 4 36 4 7-28 12-86c6-75 61-124 140-103 26 7 40 29 43 59l-50 4c-1-20-9-34-29-34-35 0-41 29-49 59" id="aw"/><path fill="#fff" d="M128 0 95-87 70-74 55 0H6l51-261h49L77-111l82-79h56l-83 74L180 0h-52" id="ax"/><path fill="#fff" d="M151-194c95 0 34 128 28 194h-49l25-134c0-29-45-25-59-9C67-111 69-48 56 0H6l36-190h47l-4 32c15-20 33-36 66-36" id="ay"/><path fill="#fff" d="M212 0h-52l-8-156L82 0H30L17-190h46l2 145 66-145h53l8 145 60-145h47" id="az"/><path fill="#fff" d="m6 0 51-261h49L55 0H6" id="aA"/><path fill="#fff" d="M132-28C118-9 101 4 69 4 30 4 10-23 10-62c0-70 24-129 92-132 31-1 47 14 56 35l19-102h49L179 0h-49zM62-69c0 22 7 39 29 39 45-2 54-45 57-90 2-27-10-40-33-40-44 0-53 48-53 91" id="aB"/><path d="m57 0 262-1349h919l-30 156H480l-82 422h668l-30 154H368l-90 461h769L1017 0H57" id="aC"/><path d="M827 0 592-444 183 0H-11l523-556-295-526h199l218 421 380-421h201L716-558 1028 0H827" id="aD"/><path d="M726-1102c256 0 385 126 386 379 1 67-11 147-25 220H315c-7 39-13 78-13 121 2 164 74 267 238 267 154 0 260-65 317-166l149 45C916-82 760 20 514 20c-259 0-398-131-398-390 0-357 148-615 421-704 62-20 125-28 189-28zm202 461c22-192-41-335-226-328-212 9-312 142-358 328h584" id="aE"/><path d="M522 20c-267 0-410-127-410-389 0-365 156-619 438-707 169-53 390-23 481 68 54 54 92 128 93 229l-194 14c0-132-80-198-224-196-263 3-339 192-386 415-13 63-19 121-19 174-1 166 74 255 240 253 161-2 266-84 309-215l188 12C961-121 793 20 522 20" id="aF"/><path d="M419 20c-186 0-282-64-284-243 0-40 5-86 15-138l140-721h180c-47 251-101 497-144 752-25 145 40 219 181 211 211-12 308-150 344-336l122-627h181C1087-721 1010-369 950 0H780c6-58 18-129 28-185h-3C720-71 616 20 419 20" id="aG"/><path d="M574 16c-199 5-309-85-269-285l131-671H268l27-142h170l113-282h120l-55 282h432l-27 142H616c-43 233-105 457-132 696-16 144 198 111 324 99 46-6 96-14 136-22L918-30C819-5 700 13 574 16" id="aH"/><path d="M668-142h380L1020 0H38l28-142h422l155-798H324l27-142h499zm23-1150 37-192h200l-37 192H691" id="aI"/><path d="M815-1102c202-2 311 102 279 314-40 267-101 525-150 788H763l135-695c7-39 11-71 11-98 2-119-62-175-179-170-208 9-312 151-348 336L260 0H80c67-361 144-713 204-1082h170c-6 58-17 130-28 185h3c86-116 194-203 386-205" id="aJ"/><path d="M333-426c25-52 47-111 64-170h58v343h85v100h-85V0H333v-153H31v-100c79-131 144-275 184-445h128c-43 167-118 320-202 445h192v-173" id="aK"/><path d="M526-224C524-72 439 12 287 12 140 12 49-67 46-213h126c1 76 40 124 115 125 78-2 112-55 113-136 0-77-37-122-110-124-51 1-83 26-105 57L69-306l28-380h394v111H203l-11 169c33-23 73-40 131-40 132 4 203 83 203 222" id="aL"/><path fill="#fff" d="M93-157 62 0H13l31-157H16l6-33h28c2-54 40-81 100-68l-6 32c-29-8-44 9-45 36h38l-7 33H93" id="aM"/><path fill="#fff" d="M69 3c-96 0-34-126-28-193h49L65-57c6 42 62 18 71-6 14-38 17-86 28-127h50L178 0h-47c0-11 4-26 3-33-14 20-30 37-65 36" id="aN"/><path d="m10 0 188-271L23-526h148l104 163h6l106-163h139L350-274 536 0H390L273-182h-6L149 0H10" id="aO"/><path d="m512-1193-96 494h676l-31 158H385L280 0H89l262-1349h891l-30 156H512" id="aP"/><path d="M659-142h380L1011 0H29l28-142h422l233-1200H423l27-142h469" id="aQ"/><path d="M1250-1318c-146-12-362-44-462 30-59 45-85 113-103 206h491l-27 142H658L475 0H295l183-940H216l27-142h262c39-288 215-425 565-400 70 5 148 8 208 19" id="aR"/><path d="M1000-783c14-86 16-180-76-180-43 0-83 29-120 85s-67 140-88 251L594 0H426c49-261 107-518 150-783 14-86 14-191-77-180-103 13-137 116-173 209-17 43-28 93-39 147L169 0H0c67-361 144-713 204-1082h149c-6 55-18 122-28 175h2c54-95 112-192 254-195 127-2 153 72 158 196 61-99 122-196 274-196 124 0 168 64 168 192 0 67-10 125-22 189L1019 0H851c49-261 106-518 149-783" id="aS"/><path d="M351 12c-76 0-127-27-158-73h-6v234H65v-699h101l10 70h7c31-50 86-81 161-82 155 4 208 112 209 276-1 158-55 268-202 274zM187-269c-1 100 23 174 119 176 102 2 122-71 121-176-1-99-23-165-121-164-92 1-118 69-119 164" id="aT"/><path d="M200 0 5-526h128c46 131 97 256 132 397h5c34-143 85-266 130-397h124L328 0H200" id="aU"/><path d="M302-698c172-6 264 132 206 288-48 128-186 183-282 268-11 11-19 21-25 32h328V0H51c-10-163 98-220 187-293 68-57 162-99 162-212 0-57-39-92-103-91-88-1-122 51-113 146H62c-22-168 86-243 240-248" id="aV"/><path fill="#fff" d="m10-72 8-43h92l-9 43H10" id="aW"/><path fill="#fff" d="M150-105c8-23 8-54-22-51-68 7-54 98-72 156H6l50-261h50L85-158c15-20 33-36 66-36 95 0 34 128 28 194h-49" id="aX"/><path fill="#fff" d="M255-194c90 0 29 129 24 194h-49l25-136c-7-39-53-14-60 9-12 38-18 85-28 127h-49l25-136c2-29-39-23-50-7C69-108 68-47 56 0H6l36-190h48c-1 10-6 24-4 32 12-20 27-36 57-36s46 15 50 41c14-21 29-41 62-41" id="aY"/><path fill="#fff" d="M156-122c2-23-7-37-28-37-47 0-58 44-58 89 0 24 12 40 36 40 43 0 47-49 50-92zM-8 75l50-265h48c0 10-3 24-3 30 22-50 127-45 121 29-6 73-21 135-92 135-29 0-46-14-55-35L41 75H-8" id="aZ"/><g id="a"><use transform="rotate(.906) scale(.01778)" xlink:href="#I"/><use transform="matrix(.01778 0 0 .01778 11.947 0)" xlink:href="#J"/><use transform="matrix(.01778 0 0 .01778 21.671 0)" xlink:href="#K"/><use transform="matrix(.01778 0 0 .01778 32.302 0)" xlink:href="#L"/><use transform="matrix(.01778 0 0 .01778 41.92 0)" xlink:href="#M"/><use transform="matrix(.01778 0 0 .01778 51.324 0)" xlink:href="#L"/><use transform="matrix(.01778 0 0 .01778 60.942 0)" xlink:href="#N"/><use transform="matrix(.01778 0 0 .01778 66.524 0)" xlink:href="#O"/><use transform="matrix(.01778 0 0 .01778 76.498 0)" xlink:href="#P"/></g><g id="c"><use transform="rotate(.906) scale(.01778)" xlink:href="#R"/><use transform="matrix(.01778 0 0 .01778 12.818 0)" xlink:href="#K"/><use transform="matrix(.01778 0 0 .01778 23.449 0)" xlink:href="#S"/><use transform="matrix(.01778 0 0 .01778 33.831 0)" xlink:href="#L"/><use transform="matrix(.01778 0 0 .01778 43.449 0)" xlink:href="#T"/><use transform="matrix(.01778 0 0 .01778 53.813 0)" xlink:href="#P"/><use transform="matrix(.01778 0 0 .01778 69.12 0)" xlink:href="#O"/><use transform="matrix(.01778 0 0 .01778 79.093 0)" xlink:href="#U"/></g><g id="d"><use transform="scale(.0076)" xlink:href="#V"/><use transform="matrix(.0076 0 0 .0076 9.335 0)" xlink:href="#W"/><use transform="matrix(.0076 0 0 .0076 18.67 0)" xlink:href="#X"/></g><g id="f"><use transform="rotate(.137) scale(.04321)" xlink:href="#Z"/><use transform="matrix(.04321 0 0 .04321 6.05 0)" xlink:href="#aa"/><use transform="matrix(.04321 0 0 .04321 14.691 0)" xlink:href="#ab"/><use transform="matrix(.04321 0 0 .04321 24.154 0)" xlink:href="#ac"/><use transform="matrix(.04321 0 0 .04321 28.475 0)" xlink:href="#ad"/><use transform="matrix(.04321 0 0 .04321 37.117 0)" xlink:href="#ae"/><use transform="matrix(.04321 0 0 .04321 42.26 0)" xlink:href="#aa"/><use transform="matrix(.04321 0 0 .04321 50.901 0)" xlink:href="#Z"/></g><g id="g"><use transform="rotate(.137) scale(.04321)" xlink:href="#af"/><use transform="matrix(.04321 0 0 .04321 4.321 0)" xlink:href="#ag"/><use transform="matrix(.04321 0 0 .04321 13.784 0)" xlink:href="#ah"/></g><g id="h"><use transform="rotate(.906) scale(.01778)" xlink:href="#ai"/><use transform="matrix(.01778 0 0 .01778 12.604 0)" xlink:href="#J"/><use transform="matrix(.01778 0 0 .01778 22.329 0)" xlink:href="#T"/><use transform="matrix(.01778 0 0 .01778 32.693 0)" xlink:href="#U"/><use transform="matrix(.01778 0 0 .01778 38.951 0)" xlink:href="#aj"/><use transform="matrix(.01778 0 0 .01778 48.836 0)" xlink:href="#L"/><use transform="matrix(.01778 0 0 .01778 58.453 0)" xlink:href="#N"/></g><g id="i"><use transform="rotate(.906) scale(.01778)" xlink:href="#R"/><use transform="matrix(.01778 0 0 .01778 12.818 0)" xlink:href="#K"/><use transform="matrix(.01778 0 0 .01778 23.449 0)" xlink:href="#S"/><use transform="matrix(.01778 0 0 .01778 33.831 0)" xlink:href="#L"/><use transform="matrix(.01778 0 0 .01778 43.449 0)" xlink:href="#O"/><use transform="matrix(.01778 0 0 .01778 53.422 0)" xlink:href="#S"/><use transform="matrix(.01778 0 0 .01778 63.804 0)" xlink:href="#L"/><use transform="matrix(.01778 0 0 .01778 73.422 0)" xlink:href="#T"/><use transform="matrix(.01778 0 0 .01778 83.787 0)" xlink:href="#L"/></g><g id="j"><use transform="rotate(.906) scale(.01778)" xlink:href="#ak"/><use transform="matrix(.01778 0 0 .01778 10.133 0)" xlink:href="#aj"/><use transform="matrix(.01778 0 0 .01778 20.018 0)" xlink:href="#M"/><use transform="matrix(.01778 0 0 .01778 29.422 0)" xlink:href="#O"/><use transform="matrix(.01778 0 0 .01778 39.396 0)" xlink:href="#U"/></g><g id="k"><use transform="rotate(.906) scale(.01778)" xlink:href="#al"/><use transform="matrix(.01778 0 0 .01778 13.902 0)" xlink:href="#U"/><use transform="matrix(.01778 0 0 .01778 20.16 0)" xlink:href="#J"/><use transform="matrix(.01778 0 0 .01778 29.884 0)" xlink:href="#am"/><use transform="matrix(.01778 0 0 .01778 40.267 0)" xlink:href="#O"/><use transform="matrix(.01778 0 0 .01778 50.24 0)" xlink:href="#L"/><use transform="matrix(.01778 0 0 .01778 59.858 0)" xlink:href="#N"/><use transform="matrix(.01778 0 0 .01778 65.44 0)" xlink:href="#U"/><use transform="matrix(.01778 0 0 .01778 71.698 0)" xlink:href="#aj"/><use transform="matrix(.01778 0 0 .01778 81.582 0)" xlink:href="#N"/><use transform="matrix(.01778 0 0 .01778 87.164 0)" xlink:href="#K"/><use transform="matrix(.01778 0 0 .01778 97.796 0)" xlink:href="#U"/></g><g id="l"><use transform="rotate(.906) scale(.01778)" xlink:href="#an"/><use transform="matrix(.01778 0 0 .01778 11.911 0)" xlink:href="#U"/><use transform="matrix(.01778 0 0 .01778 18.169 0)" xlink:href="#K"/><use transform="matrix(.01778 0 0 .01778 28.8 0)" xlink:href="#J"/><use transform="matrix(.01778 0 0 .01778 38.524 0)" xlink:href="#O"/><use transform="matrix(.01778 0 0 .01778 48.498 0)" xlink:href="#L"/><use transform="matrix(.01778 0 0 .01778 58.116 0)" xlink:href="#L"/><use transform="matrix(.01778 0 0 .01778 67.733 0)" xlink:href="#K"/><use transform="matrix(.01778 0 0 .01778 78.364 0)" xlink:href="#U"/></g><g id="m"><use transform="scale(.01333)" xlink:href="#ai"/><use transform="matrix(.01333 0 0 .01333 9.453 0)" xlink:href="#J"/><use transform="matrix(.01333 0 0 .01333 16.747 0)" xlink:href="#T"/><use transform="matrix(.01333 0 0 .01333 24.52 0)" xlink:href="#U"/><use transform="matrix(.01333 0 0 .01333 29.213 0)" xlink:href="#aj"/><use transform="matrix(.01333 0 0 .01333 36.627 0)" xlink:href="#L"/><use transform="matrix(.01333 0 0 .01333 43.84 0)" xlink:href="#N"/></g><g id="n"><use transform="scale(.01333)" xlink:href="#ao"/><use transform="matrix(.01333 0 0 .01333 8.893 0)" xlink:href="#O"/><use transform="matrix(.01333 0 0 .01333 16.373 0)" xlink:href="#J"/><use transform="matrix(.01333 0 0 .01333 23.667 0)" xlink:href="#T"/><use transform="matrix(.01333 0 0 .01333 31.44 0)" xlink:href="#U"/><use transform="matrix(.01333 0 0 .01333 36.133 0)" xlink:href="#O"/></g><g id="o"><use transform="scale(.01333)" xlink:href="#ap"/><use transform="matrix(.01333 0 0 .01333 9.76 0)" xlink:href="#aj"/><use transform="matrix(.01333 0 0 .01333 17.173 0)" xlink:href="#U"/><use transform="matrix(.01333 0 0 .01333 21.867 0)" xlink:href="#aq"/><use transform="matrix(.01333 0 0 .01333 29.76 0)" xlink:href="#ar"/><use transform="matrix(.01333 0 0 .01333 39.8 0)" xlink:href="#aj"/><use transform="matrix(.01333 0 0 .01333 47.213 0)" xlink:href="#U"/><use transform="matrix(.01333 0 0 .01333 51.907 0)" xlink:href="#O"/></g><g id="p"><use transform="scale(.01333)" xlink:href="#as"/><use transform="matrix(.01333 0 0 .01333 9.427 0)" xlink:href="#T"/><use transform="matrix(.01333 0 0 .01333 17.2 0)" xlink:href="#S"/><use transform="matrix(.01333 0 0 .01333 24.987 0)" xlink:href="#N"/><use transform="matrix(.01333 0 0 .01333 29.173 0)" xlink:href="#at"/><use transform="matrix(.01333 0 0 .01333 32.533 0)" xlink:href="#P"/><use transform="matrix(.01333 0 0 .01333 44.013 0)" xlink:href="#O"/></g><g id="r"><use transform="rotate(.137) scale(.04321)" xlink:href="#av"/><use transform="matrix(.04321 0 0 .04321 8.642 0)" xlink:href="#aw"/><use transform="matrix(.04321 0 0 .04321 17.284 0)" xlink:href="#ax"/><use transform="matrix(.04321 0 0 .04321 25.926 0)" xlink:href="#ay"/><use transform="matrix(.04321 0 0 .04321 35.389 0)" xlink:href="#ag"/><use transform="matrix(.04321 0 0 .04321 44.852 0)" xlink:href="#az"/><use transform="matrix(.04321 0 0 .04321 56.95 0)" xlink:href="#aA"/><use transform="matrix(.04321 0 0 .04321 61.272 0)" xlink:href="#aa"/><use transform="matrix(.04321 0 0 .04321 69.914 0)" xlink:href="#aB"/><use transform="matrix(.04321 0 0 .04321 79.377 0)" xlink:href="#ab"/><use transform="matrix(.04321 0 0 .04321 88.84 0)" xlink:href="#aa"/></g><g id="s"><use transform="rotate(.137) scale(.04321)" xlink:href="#af"/><use transform="matrix(.04321 0 0 .04321 4.321 0)" xlink:href="#ag"/><use transform="matrix(.04321 0 0 .04321 13.784 0)" xlink:href="#ah"/></g><g id="t"><use transform="scale(.0076)" xlink:href="#V"/><use transform="matrix(.0076 0 0 .0076 9.335 0)" xlink:href="#W"/><use transform="matrix(.0076 0 0 .0076 18.67 0)" xlink:href="#X"/></g><g id="u"><use transform="scale(.0076)" xlink:href="#aC"/><use transform="matrix(.0076 0 0 .0076 9.335 0)" xlink:href="#aD"/><use transform="matrix(.0076 0 0 .0076 18.67 0)" xlink:href="#aE"/><use transform="matrix(.0076 0 0 .0076 28.005 0)" xlink:href="#aF"/><use transform="matrix(.0076 0 0 .0076 37.34 0)" xlink:href="#aG"/><use transform="matrix(.0076 0 0 .0076 46.674 0)" xlink:href="#aH"/><use transform="matrix(.0076 0 0 .0076 56.01 0)" xlink:href="#aI"/><use transform="matrix(.0076 0 0 .0076 65.344 0)" xlink:href="#W"/><use transform="matrix(.0076 0 0 .0076 74.679 0)" xlink:href="#aJ"/></g><g id="x"><use transform="scale(.03704)" xlink:href="#aM"/><use transform="matrix(.03704 0 0 .03704 4.407 0)" xlink:href="#aN"/><use transform="matrix(.03704 0 0 .03704 12.519 0)" xlink:href="#aA"/><use transform="matrix(.03704 0 0 .03704 16.222 0)" xlink:href="#aM"/><use transform="matrix(.03704 0 0 .03704 20.63 0)" xlink:href="#ac"/><use transform="matrix(.03704 0 0 .03704 24.333 0)" xlink:href="#aA"/><use transform="matrix(.03704 0 0 .03704 28.037 0)" xlink:href="#aA"/></g><g id="z"><use transform="rotate(.906) scale(.01778)" xlink:href="#R"/><use transform="matrix(.01778 0 0 .01778 12.818 0)" xlink:href="#K"/><use transform="matrix(.01778 0 0 .01778 23.449 0)" xlink:href="#S"/><use transform="matrix(.01778 0 0 .01778 33.831 0)" xlink:href="#L"/><use transform="matrix(.01778 0 0 .01778 43.449 0)" xlink:href="#O"/><use transform="matrix(.01778 0 0 .01778 53.422 0)" xlink:href="#S"/><use transform="matrix(.01778 0 0 .01778 63.804 0)" xlink:href="#L"/><use transform="matrix(.01778 0 0 .01778 73.422 0)" xlink:href="#T"/><use transform="matrix(.01778 0 0 .01778 83.787 0)" xlink:href="#L"/></g><g id="A"><use transform="rotate(.906) scale(.01778)" xlink:href="#an"/><use transform="matrix(.01778 0 0 .01778 11.911 0)" xlink:href="#U"/><use transform="matrix(.01778 0 0 .01778 18.169 0)" xlink:href="#K"/><use transform="matrix(.01778 0 0 .01778 28.356 0)" xlink:href="#aO"/><use transform="matrix(.01778 0 0 .01778 38.062 0)" xlink:href="#M"/></g><g id="B"><use transform="rotate(.906) scale(.01778)" xlink:href="#R"/><use transform="matrix(.01778 0 0 .01778 12.818 0)" xlink:href="#K"/><use transform="matrix(.01778 0 0 .01778 23.449 0)" xlink:href="#S"/><use transform="matrix(.01778 0 0 .01778 33.831 0)" xlink:href="#N"/><use transform="matrix(.01778 0 0 .01778 39.413 0)" xlink:href="#U"/><use transform="matrix(.01778 0 0 .01778 45.671 0)" xlink:href="#aj"/><use transform="matrix(.01778 0 0 .01778 55.556 0)" xlink:href="#J"/><use transform="matrix(.01778 0 0 .01778 65.28 0)" xlink:href="#N"/></g><g id="C"><use transform="scale(.0076)" xlink:href="#aP"/><use transform="matrix(.0076 0 0 .0076 9.335 0)" xlink:href="#aG"/><use transform="matrix(.0076 0 0 .0076 18.67 0)" xlink:href="#aQ"/><use transform="matrix(.0076 0 0 .0076 28.005 0)" xlink:href="#aR"/><use transform="matrix(.0076 0 0 .0076 37.34 0)" xlink:href="#aI"/><use transform="matrix(.0076 0 0 .0076 46.674 0)" xlink:href="#aQ"/><use transform="matrix(.0076 0 0 .0076 56.01 0)" xlink:href="#aQ"/><use transform="matrix(.0076 0 0 .0076 65.344 0)" xlink:href="#aS"/><use transform="matrix(.0076 0 0 .0076 74.679 0)" xlink:href="#aE"/><use transform="matrix(.0076 0 0 .0076 84.014 0)" xlink:href="#aJ"/><use transform="matrix(.0076 0 0 .0076 93.349 0)" xlink:href="#aH"/></g><g id="D"><use transform="rotate(.906) scale(.01778)" xlink:href="#ap"/><use transform="matrix(.01778 0 0 .01778 13.013 0)" xlink:href="#M"/><use transform="matrix(.01778 0 0 .01778 22.418 0)" xlink:href="#aT"/><use transform="matrix(.01778 0 0 .01778 32.942 0)" xlink:href="#O"/><use transform="matrix(.01778 0 0 .01778 42.916 0)" xlink:href="#U"/><use transform="matrix(.01778 0 0 .01778 49.173 0)" xlink:href="#aq"/><use transform="matrix(.01778 0 0 .01778 59.698 0)" xlink:href="#U"/><use transform="matrix(.01778 0 0 .01778 66.133 0)" xlink:href="#at"/><use transform="matrix(.01778 0 0 .01778 70.613 0)" xlink:href="#aU"/><use transform="matrix(.01778 0 0 .01778 80.018 0)" xlink:href="#O"/></g><g id="F"><use transform="rotate(.137) scale(.04321)" xlink:href="#aw"/><use transform="matrix(.04321 0 0 .04321 8.642 0)" xlink:href="#Z"/><use transform="matrix(.04321 0 0 .04321 14.691 0)" xlink:href="#ag"/><use transform="matrix(.04321 0 0 .04321 24.154 0)" xlink:href="#ad"/><use transform="matrix(.04321 0 0 .04321 32.796 0)" xlink:href="#ad"/><use transform="matrix(.04321 0 0 .04321 41.438 0)" xlink:href="#aW"/><use transform="matrix(.04321 0 0 .04321 46.58 0)" xlink:href="#aw"/><use transform="matrix(.04321 0 0 .04321 55.222 0)" xlink:href="#aX"/><use transform="matrix(.04321 0 0 .04321 64.685 0)" xlink:href="#av"/><use transform="matrix(.04321 0 0 .04321 73.327 0)" xlink:href="#ac"/><use transform="matrix(.04321 0 0 .04321 77.648 0)" xlink:href="#ay"/></g><g id="G"><use transform="rotate(.137) scale(.04321)" xlink:href="#aY"/><use transform="matrix(.04321 0 0 .04321 13.827 0)" xlink:href="#aa"/><use transform="matrix(.04321 0 0 .04321 22.47 0)" xlink:href="#ad"/><use transform="matrix(.04321 0 0 .04321 31.111 0)" xlink:href="#ad"/><use transform="matrix(.04321 0 0 .04321 39.753 0)" xlink:href="#av"/><use transform="matrix(.04321 0 0 .04321 48.395 0)" xlink:href="#ab"/><use transform="matrix(.04321 0 0 .04321 57.858 0)" xlink:href="#aa"/></g><g id="H"><use transform="rotate(.137) scale(.04321)" xlink:href="#aZ"/><use transform="matrix(.04321 0 0 .04321 9.463 0)" xlink:href="#av"/><use transform="matrix(.04321 0 0 .04321 18.105 0)" xlink:href="#ad"/><use transform="matrix(.04321 0 0 .04321 26.747 0)" xlink:href="#ad"/><use transform="matrix(.04321 0 0 .04321 35.389 0)" xlink:href="#ac"/><use transform="matrix(.04321 0 0 .04321 39.71 0)" xlink:href="#ay"/><use transform="matrix(.04321 0 0 .04321 49.173 0)" xlink:href="#ab"/></g><use transform="rotate(.906) scale(.01778)" xlink:href="#Q" id="b"/><use transform="scale(.01556)" xlink:href="#Y" id="e"/><use transform="scale(.01556)" xlink:href="#au" id="q"/><use transform="scale(.01556)" xlink:href="#aK" id="v"/><use transform="scale(.01556)" xlink:href="#aL" id="w"/><use transform="rotate(.906) scale(.01778)" xlink:href="#Q" id="y"/><use transform="scale(.01556)" xlink:href="#aV" id="E"/></defs></g></svg>