<svg xmlns="http://www.w3.org/2000/svg" xmlns:xlink="http://www.w3.org/1999/xlink" xmlns:lucid="lucid" width="738.39" height="340.08"><g transform="translate(-99 -180)" lucid:page-tab-id="~.omAmoEk3OC"><path d="M100 321.35a6 6 0 0 1 6-6h168.48a6 6 0 0 1 6 6v38.56a6 6 0 0 1-6 6.02H106a6 6 0 0 1-6-6z" stroke="#000" stroke-width="2" fill="#f2f3f5"/><use xlink:href="#a" transform="translate(137.044 346.858)"/><path d="M316.63 321.35a6 6 0 0 1 6-6h274.2a6 6 0 0 1 6 6v38.56a6 6 0 0 1-6 6.02h-274.2a6 6 0 0 1-6-6z" stroke="#000" stroke-width="2" fill="#fff"/><use xlink:href="#b" transform="translate(352.743 348.545)"/><use xlink:href="#c" transform="translate(437.232 348.545)"/><path d="M655.92 273.38a6 6 0 0 1 6-6H830.4a6 6 0 0 1 6 6v38.57a6 6 0 0 1-6 6H661.9a6 6 0 0 1-6-6z" stroke="#000" stroke-width="2" fill="#f2f3f5"/><use xlink:href="#d" transform="translate(693.417 298.894)"/><path d="M245.5 367.9v33.02a6 6 0 0 0 6 6H343a6 6 0 0 0 6-6v-15.5" stroke="#6f7681" stroke-width="2" fill="none"/><path d="M246.5 367.94h-2v-1.03h2z" stroke="#6f7681" stroke-width=".05" fill="#6f7681"/><path d="m349 370.15 4.63 14.27h-9.27z" stroke="#6f7681" stroke-width="2" fill="#6f7681"/><use xlink:href="#e" transform="translate(259.057 397.576)"/><use xlink:href="#f" transform="translate(324.763 397.576)"/><path d="M655.92 371.92a6 6 0 0 1 6-6H830.4a6 6 0 0 1 6 6v38.56a6 6 0 0 1-6 6H661.9a6 6 0 0 1-6-6z" fill="#f2f3f5"/><path d="M656.92 371.92c0 .55-.45 1-1 1s-1-.45-1-1c0-.56.45-1 1-1s1 .44 1 1zm1.75-4.25c0 .55-.44 1-1 1-.55 0-1-.45-1-1s.45-1 1-1c.56 0 1 .45 1 1zm4.25-1.75c0 .55-.45 1-1 1s-1-.45-1-1c0-.56.45-1 1-1s1 .44 1 1zm4 0c0 .55-.44 1-1 1-.54 0-1-.45-1-1 0-.56.46-1 1-1 .56 0 1 .44 1 1zm4.02 0c0 .55-.45 1-1 1s-1-.45-1-1c0-.56.45-1 1-1s1 .44 1 1zm4 0c0 .55-.44 1-1 1-.54 0-1-.45-1-1 0-.56.46-1 1-1 .56 0 1 .44 1 1zm4.02 0c0 .55-.45 1-1 1s-1-.45-1-1c0-.56.45-1 1-1s1 .44 1 1zm4 0c0 .55-.43 1-1 1-.54 0-1-.45-1-1 0-.56.46-1 1-1 .57 0 1 .44 1 1zm4.02 0c0 .55-.44 1-1 1-.55 0-1-.45-1-1 0-.56.45-1 1-1 .56 0 1 .44 1 1zm4.02 0c0 .55-.45 1-1 1-.56 0-1-.45-1-1 0-.56.44-1 1-1 .55 0 1 .44 1 1zm4 0c0 .55-.44 1-1 1-.54 0-1-.45-1-1 0-.56.46-1 1-1 .56 0 1 .44 1 1zm4.02 0c0 .55-.45 1-1 1s-1-.45-1-1c0-.56.45-1 1-1s1 .44 1 1zm4 0c0 .55-.44 1-1 1-.54 0-1-.45-1-1 0-.56.46-1 1-1 .56 0 1 .44 1 1zm4.02 0c0 .55-.45 1-1 1s-1-.45-1-1c0-.56.45-1 1-1s1 .44 1 1zm4 0c0 .55-.43 1-1 1-.54 0-1-.45-1-1 0-.56.46-1 1-1 .57 0 1 .44 1 1zm4.02 0c0 .55-.44 1-1 1-.55 0-1-.45-1-1 0-.56.45-1 1-1 .56 0 1 .44 1 1zm4.02 0c0 .55-.45 1-1 1-.56 0-1-.45-1-1 0-.56.44-1 1-1 .55 0 1 .44 1 1zm4 0c0 .55-.44 1-1 1-.55 0-1-.45-1-1 0-.56.45-1 1-1 .56 0 1 .44 1 1zm4.02 0c0 .55-.45 1-1 1s-1-.45-1-1c0-.56.45-1 1-1s1 .44 1 1zm4 0c0 .55-.44 1-1 1-.54 0-1-.45-1-1 0-.56.46-1 1-1 .56 0 1 .44 1 1zm4.02 0c0 .55-.45 1-1 1s-1-.45-1-1c0-.56.45-1 1-1s1 .44 1 1zm4 0c0 .55-.44 1-1 1-.54 0-1-.45-1-1 0-.56.46-1 1-1 .56 0 1 .44 1 1zm4.02 0c0 .55-.44 1-1 1-.55 0-1-.45-1-1 0-.56.45-1 1-1 .56 0 1 .44 1 1zm4 0c0 .55-.43 1-1 1-.54 0-1-.45-1-1 0-.56.46-1 1-1 .57 0 1 .44 1 1zm4.03 0c0 .55-.45 1-1 1-.56 0-1-.45-1-1 0-.56.44-1 1-1 .55 0 1 .44 1 1zm4 0c0 .55-.44 1-1 1-.54 0-1-.45-1-1 0-.56.46-1 1-1 .56 0 1 .44 1 1zm4.02 0c0 .55-.46 1-1 1-.56 0-1-.45-1-1 0-.56.44-1 1-1 .54 0 1 .44 1 1zm4 0c0 .55-.45 1-1 1s-1-.45-1-1c0-.56.45-1 1-1s1 .44 1 1zm4 0c0 .55-.44 1-1 1-.54 0-1-.45-1-1 0-.56.46-1 1-1 .56 0 1 .44 1 1zm4.02 0c0 .55-.45 1-1 1s-1-.45-1-1c0-.56.45-1 1-1s1 .44 1 1zm4 0c0 .55-.43 1-1 1-.54 0-1-.45-1-1 0-.56.46-1 1-1 .57 0 1 .44 1 1zm4.02 0c0 .55-.44 1-1 1-.55 0-1-.45-1-1 0-.56.45-1 1-1 .56 0 1 .44 1 1zm4.02 0c0 .55-.45 1-1 1-.56 0-1-.45-1-1 0-.56.44-1 1-1 .55 0 1 .44 1 1zm4 0c0 .55-.44 1-1 1-.54 0-1-.45-1-1 0-.56.46-1 1-1 .56 0 1 .44 1 1zm4.02 0c0 .55-.45 1-1 1s-1-.45-1-1c0-.56.45-1 1-1s1 .44 1 1zm4 0c0 .55-.44 1-1 1-.54 0-1-.45-1-1 0-.56.46-1 1-1 .56 0 1 .44 1 1zm4.02 0c0 .55-.45 1-1 1s-1-.45-1-1c0-.56.45-1 1-1s1 .44 1 1zm4 0c0 .55-.43 1-1 1-.54 0-1-.45-1-1 0-.56.46-1 1-1 .57 0 1 .44 1 1zm4.03 0c0 .55-.45 1-1 1-.56 0-1-.45-1-1 0-.56.44-1 1-1 .55 0 1 .44 1 1zm4 0c0 .55-.44 1-1 1-.55 0-1-.45-1-1 0-.56.45-1 1-1 .56 0 1 .44 1 1zm4.02 0c0 .55-.45 1-1 1-.56 0-1-.45-1-1 0-.56.44-1 1-1 .55 0 1 .44 1 1zm4 0c0 .55-.44 1-1 1-.54 0-1-.45-1-1 0-.56.46-1 1-1 .56 0 1 .44 1 1zm4.02 0c0 .55-.45 1-1 1s-1-.45-1-1c0-.56.45-1 1-1s1 .44 1 1zm4 0c0 .55-.44 1-1 1-.54 0-1-.45-1-1 0-.56.46-1 1-1 .56 0 1 .44 1 1zm4.02 0c0 .55-.45 1-1 1-.56 0-1-.45-1-1 0-.56.44-1 1-1 .55 0 1 .44 1 1zm4.24 1.75c0 .55-.45 1-1 1-.56 0-1-.45-1-1s.44-1 1-1c.55 0 1 .45 1 1zm1.75 4.25c0 .55-.45 1-1 1-.56 0-1-.45-1-1 0-.56.44-1 1-1 .55 0 1 .44 1 1zm0 3.85c0 .55-.45 1-1 1-.56 0-1-.45-1-1s.44-1 1-1c.55 0 1 .45 1 1zm0 3.86c0 .55-.45 1-1 1-.56 0-1-.45-1-1s.44-1 1-1c.55 0 1 .45 1 1zm0 3.86c0 .54-.45 1-1 1-.56 0-1-.46-1-1 0-.57.44-1 1-1 .55 0 1 .43 1 1zm0 3.84c0 .55-.45 1-1 1-.56 0-1-.45-1-1s.44-1 1-1c.55 0 1 .45 1 1zm0 3.86c0 .55-.45 1-1 1-.56 0-1-.45-1-1s.44-1 1-1c.55 0 1 .45 1 1zm0 3.86c0 .55-.45 1-1 1-.56 0-1-.45-1-1 0-.56.44-1 1-1 .55 0 1 .44 1 1zm0 3.85c0 .56-.45 1-1 1-.56 0-1-.44-1-1 0-.54.44-1 1-1 .55 0 1 .46 1 1zm0 3.87c0 .55-.45 1-1 1-.56 0-1-.45-1-1s.44-1 1-1c.55 0 1 .45 1 1zm0 3.86c0 .55-.45 1-1 1-.56 0-1-.45-1-1 0-.56.44-1 1-1 .55 0 1 .44 1 1zm0 3.85c0 .56-.45 1-1 1-.56 0-1-.44-1-1 0-.55.44-1 1-1 .55 0 1 .45 1 1zm-1.76 4.25c0 .55-.45 1-1 1-.56 0-1-.45-1-1 0-.56.44-1 1-1 .55 0 1 .44 1 1zm-4.25 1.75c0 .56-.45 1-1 1-.56 0-1-.44-1-1 0-.55.44-1 1-1 .55 0 1 .45 1 1zm-4.02 0c0 .56-.45 1-1 1s-1-.44-1-1c0-.55.45-1 1-1s1 .45 1 1zm-4 0c0 .56-.46 1-1 1-.56 0-1-.44-1-1 0-.55.44-1 1-1 .54 0 1 .45 1 1zm-4.02 0c0 .56-.45 1-1 1s-1-.44-1-1c0-.55.45-1 1-1s1 .45 1 1zm-4 0c0 .56-.46 1-1 1-.57 0-1-.44-1-1 0-.55.43-1 1-1 .54 0 1 .45 1 1zm-4.02 0c0 .56-.45 1-1 1-.56 0-1-.44-1-1 0-.55.44-1 1-1 .55 0 1 .45 1 1zm-4 0c0 .56-.46 1-1 1-.57 0-1-.44-1-1 0-.55.43-1 1-1 .54 0 1 .45 1 1zm-4.03 0c0 .56-.43 1-1 1-.54 0-1-.44-1-1 0-.55.46-1 1-1 .57 0 1 .45 1 1zm-4 0c0 .56-.45 1-1 1s-1-.44-1-1c0-.55.45-1 1-1s1 .45 1 1zm-4 0c0 .56-.46 1-1 1-.56 0-1-.44-1-1 0-.55.44-1 1-1 .54 0 1 .45 1 1zm-4.02 0c0 .56-.45 1-1 1s-1-.44-1-1c0-.55.45-1 1-1s1 .45 1 1zm-4 0c0 .56-.46 1-1 1-.56 0-1-.44-1-1 0-.55.44-1 1-1 .54 0 1 .45 1 1zm-4.02 0c0 .56-.45 1-1 1-.56 0-1-.44-1-1 0-.55.44-1 1-1 .55 0 1 .45 1 1zm-4 0c0 .56-.46 1-1 1-.57 0-1-.44-1-1 0-.55.43-1 1-1 .54 0 1 .45 1 1zm-4.03 0c0 .56-.44 1-1 1-.55 0-1-.44-1-1 0-.55.45-1 1-1 .56 0 1 .45 1 1zm-4 0c0 .56-.46 1-1 1-.56 0-1-.44-1-1 0-.55.44-1 1-1 .54 0 1 .45 1 1zm-4.02 0c0 .56-.44 1-1 1-.54 0-1-.44-1-1 0-.55.46-1 1-1 .56 0 1 .45 1 1zm-4 0c0 .56-.45 1-1 1s-1-.44-1-1c0-.55.45-1 1-1s1 .45 1 1zm-4 0c0 .56-.46 1-1 1-.56 0-1-.44-1-1 0-.55.44-1 1-1 .54 0 1 .45 1 1zm-4.02 0c0 .56-.45 1-1 1s-1-.44-1-1c0-.55.45-1 1-1s1 .45 1 1zm-4 0c0 .56-.46 1-1 1-.57 0-1-.44-1-1 0-.55.43-1 1-1 .54 0 1 .45 1 1zm-4.02 0c0 .56-.45 1-1 1-.56 0-1-.44-1-1 0-.55.44-1 1-1 .55 0 1 .45 1 1zm-4.02 0c0 .56-.44 1-1 1-.55 0-1-.44-1-1 0-.55.45-1 1-1 .56 0 1 .45 1 1zm-4 0c0 .56-.46 1-1 1-.56 0-1-.44-1-1 0-.55.44-1 1-1 .54 0 1 .45 1 1zm-4.02 0c0 .56-.45 1-1 1s-1-.44-1-1c0-.55.45-1 1-1s1 .45 1 1zm-4 0c0 .56-.46 1-1 1-.56 0-1-.44-1-1 0-.55.44-1 1-1 .54 0 1 .45 1 1zm-4.02 0c0 .56-.45 1-1 1s-1-.44-1-1c0-.55.45-1 1-1s1 .45 1 1zm-4 0c0 .56-.46 1-1 1-.57 0-1-.44-1-1 0-.55.43-1 1-1 .54 0 1 .45 1 1zm-4.02 0c0 .56-.45 1-1 1-.56 0-1-.44-1-1 0-.55.44-1 1-1 .55 0 1 .45 1 1zm-4.02 0c0 .56-.44 1-1 1-.55 0-1-.44-1-1 0-.55.45-1 1-1 .56 0 1 .45 1 1zm-4 0c0 .56-.45 1-1 1-.56 0-1-.44-1-1 0-.55.44-1 1-1 .55 0 1 .45 1 1zm-4.02 0c0 .56-.45 1-1 1s-1-.44-1-1c0-.55.45-1 1-1s1 .45 1 1zm-4 0c0 .56-.46 1-1 1-.56 0-1-.44-1-1 0-.55.44-1 1-1 .54 0 1 .45 1 1zm-4.02 0c0 .56-.45 1-1 1s-1-.44-1-1c0-.55.45-1 1-1s1 .45 1 1zm-4 0c0 .56-.46 1-1 1-.56 0-1-.44-1-1 0-.55.44-1 1-1 .54 0 1 .45 1 1zm-4.02 0c0 .56-.45 1-1 1-.56 0-1-.44-1-1 0-.55.44-1 1-1 .55 0 1 .45 1 1zm-4 0c0 .56-.46 1-1 1-.57 0-1-.44-1-1 0-.55.43-1 1-1 .54 0 1 .45 1 1zm-4.03 0c0 .56-.44 1-1 1-.55 0-1-.44-1-1 0-.55.45-1 1-1 .56 0 1 .45 1 1zm-4 0c0 .56-.46 1-1 1-.56 0-1-.44-1-1 0-.55.44-1 1-1 .54 0 1 .45 1 1zm-4.02 0c0 .56-.45 1-1 1s-1-.44-1-1c0-.55.45-1 1-1s1 .45 1 1zm-4 0c0 .56-.46 1-1 1-.56 0-1-.44-1-1 0-.55.44-1 1-1 .54 0 1 .45 1 1zm-4.02 0c0 .56-.45 1-1 1s-1-.44-1-1c0-.55.45-1 1-1s1 .45 1 1zm-4 0c0 .56-.46 1-1 1-.56 0-1-.44-1-1 0-.55.44-1 1-1 .54 0 1 .45 1 1zm-4.26-1.75c0 .55-.44 1-1 1-.55 0-1-.45-1-1 0-.56.45-1 1-1 .56 0 1 .44 1 1zm-1.75-4.25c0 .56-.45 1-1 1s-1-.44-1-1c0-.55.45-1 1-1s1 .45 1 1zm0-3.85c0 .55-.45 1-1 1s-1-.45-1-1c0-.56.45-1 1-1s1 .44 1 1zm0-3.86c0 .55-.45 1-1 1s-1-.45-1-1 .45-1 1-1 1 .45 1 1zm0-3.86c0 .56-.45 1-1 1s-1-.44-1-1c0-.54.45-1 1-1s1 .46 1 1zm0-3.84c0 .55-.45 1-1 1s-1-.45-1-1c0-.56.45-1 1-1s1 .44 1 1zm0-3.86c0 .55-.45 1-1 1s-1-.45-1-1 .45-1 1-1 1 .45 1 1zm0-3.86c0 .55-.45 1-1 1s-1-.45-1-1 .45-1 1-1 1 .45 1 1zm0-3.85c0 .54-.45 1-1 1s-1-.46-1-1c0-.57.45-1 1-1s1 .43 1 1zm0-3.87c0 .55-.45 1-1 1s-1-.45-1-1 .45-1 1-1 1 .45 1 1zm0-3.86c0 .55-.45 1-1 1s-1-.45-1-1 .45-1 1-1 1 .45 1 1zm0-3.85c0 .55-.45 1-1 1s-1-.45-1-1c0-.56.45-1 1-1s1 .44 1 1z" fill="#fff"/><use xlink:href="#g" transform="translate(721.583 397.426)"/><path d="M580.27 313.35v-14.68a6 6 0 0 1 6-6h50.14" stroke="#6f7681" stroke-width="2" fill="none"/><path d="M581.27 314.35h-2v-1.03h2z" stroke="#6f7681" stroke-width=".05" fill="#6f7681"/><path d="m651.68 292.67-14.26 4.63v-9.27z" stroke="#6f7681" stroke-width="2" fill="#6f7681"/><use xlink:href="#h" transform="translate(536.675 278.287)"/><use xlink:href="#i" transform="translate(584.683 278.287)"/><use xlink:href="#j" transform="translate(608.687 278.287)"/><path d="M135.45 228.27h663.72" stroke="#ced4db" stroke-width="10" fill="none"/><path d="m116.18 228.27 14.27-4.64v9.28z" stroke="#ced4db" stroke-width="10" fill="#ced4db"/><path d="M799.04 228.27h5.13M105 469.87h663.73m-663.6 0H100" stroke="#ced4db" stroke-width="10" fill="none"/><path d="m788 469.87-14.27 4.64v-9.26z" stroke="#ced4db" stroke-width="10" fill="#ced4db"/><path d="M396 180h127.48v49.68h-127.5z" fill="none"/><use xlink:href="#k" transform="translate(419.356 210.609)"/><use xlink:href="#l" transform="translate(461.205 210.609)"/><path d="M578.18 367.9v17.3a6 6 0 0 0 6 6h52.24" stroke="#6f7681" stroke-width="2" fill="none"/><path d="M579.18 367.94h-2v-1.03h2z" stroke="#6f7681" stroke-width=".05" fill="#6f7681"/><path d="m651.68 391.2-14.26 4.63v-9.27z" stroke="#6f7681" stroke-width="2" fill="#6f7681"/><use xlink:href="#m" transform="translate(544.683 416.484)"/><use xlink:href="#n" transform="translate(592.69 416.484)"/><use xlink:href="#o" transform="translate(616.695 416.484)"/><path d="M396 470.4h127.48v49.68h-127.5z" fill="none"/><use xlink:href="#p" transform="translate(407.205 501.009)"/><use xlink:href="#l" transform="translate(473.356 501.009)"/><defs><path d="M681-252C679-71 557 12 378 12 152 12 44-111 45-343c-3-231 114-355 333-355 178 0 301 84 303 265H548c-2-102-67-153-168-155-151 0-201 98-201 256 0 147 56 234 201 234 104-1 172-50 173-154h128" id="q"/><path d="M559-263c0 181-81 275-260 275C121 12 38-82 39-263c-1-182 82-275 260-275 179 0 261 94 260 275zm-394-7c-1 110 27 183 134 182 107 1 135-72 134-182-1-103-32-169-134-168-102-1-133 65-134 168" id="r"/><path d="M304-431c-72 3-117 51-117 125V0H65v-526h102l10 70h7c36-46 87-82 168-82 114 2 172 63 171 183V0H400v-333c1-67-31-98-96-98" id="s"/><path d="M503-156C503-26 401 12 270 12 138 12 38-35 41-166h120c-2 64 53 80 114 82 49-2 104-10 104-56 0-65-86-64-142-82-87-28-185-47-185-159 0-117 103-156 224-156 119 0 217 40 211 164H368c0-54-44-65-98-69-59-5-123 35-80 81 105 66 313 34 313 205" id="t"/><path d="M400-70c-36 46-87 82-168 82C121 9 61-47 61-171v-355h122v333c-1 67 31 98 96 98 72-3 117-52 117-125v-306h122V0H417l-10-70h-7" id="u"/><path d="M290-431c-67 4-103 54-103 125V0H65v-526h102l10 70h7c33-45 77-81 152-82 70 1 115 29 138 82h7c33-46 81-81 158-82 109 1 162 62 161 177V0H678v-336c0-61-23-95-82-95-67 4-102 55-102 125V0H372v-336c0-61-23-95-82-95" id="v"/><path d="M522-184C519-47 427 8 291 12 115 12 38-85 39-263c-1-179 76-275 252-275 178 0 239 115 231 305H164c4 91 33 150 128 149 67-1 108-33 110-100h120zM395-319c-1-75-29-122-104-122-84-1-117 45-125 122h229" id="w"/><path d="M352-414c-112-10-165 38-165 143V0H65v-526h102l10 83h7c18-64 84-117 168-86v115" id="x"/><path d="m5 0 267-686h164L704 0H563l-55-146H194L139 0H5zm230-256h231c-38-105-79-207-113-317h-5c-34 111-75 211-113 317" id="y"/><path d="M508-197C505-58 424 10 284 12 110 12 38-87 39-263c-1-177 72-274 245-275 142 2 222 67 224 209H384c0-72-31-110-102-110-98 1-119 79-118 183 1 99 25 169 123 169 70 0 102-41 103-110h118" id="z"/><path d="M368-60c-36 44-88 73-168 72C103 9 33-31 34-136c5-164 161-179 328-183 6-78-9-128-88-123-57 1-98 14-95 72H61c-8-124 92-166 212-168 127 1 211 46 211 167v248c-1 35 31 37 67 35v84c-19 7-45 16-76 15-55-1-88-28-101-71h-6zm-209-88c0 43 33 60 78 60 88-2 130-53 125-147-92 4-203 2-203 87" id="A"/><path d="M289-4c-23 8-54 15-85 16-87 1-128-52-128-132v-306H13v-100h66l22-147h97v147h91v100h-91v294c-3 48 44 46 91 44v84" id="B"/><path d="M737-343c0 232-118 353-346 355C164 10 45-111 45-343c0-233 119-355 346-355 228 0 346 122 346 355zm-558-10c-3 160 59 254 212 255 153-1 216-95 213-255-3-148-66-234-213-235-147 1-209 87-212 235" id="C"/><path d="M304-431c-72 3-117 51-117 125V0H65v-723h122v257h7c34-41 83-71 158-72 114 2 172 63 171 183V0H400v-333c1-67-31-98-96-98" id="D"/><path d="M645-466c0 144-84 221-232 222H206V0H76v-686h344c146 1 225 77 225 220zm-131 0c-1-70-35-108-105-109H206v220h203c67 1 106-43 105-111" id="E"/><path fill="#fff" d="M368-60c-36 44-88 73-168 72C103 9 33-31 34-136c5-164 161-179 328-183 6-78-9-128-88-123-57 1-98 14-95 72H61c-8-124 92-166 212-168 127 1 211 46 211 167v248c-1 35 31 37 67 35v84c-19 7-45 16-76 15-55-1-88-28-101-71h-6zm-209-88c0 43 33 60 78 60 88-2 130-53 125-147-92 4-203 2-203 87" id="F"/><path fill="#fff" d="M290-431c-67 4-103 54-103 125V0H65v-526h102l10 70h7c33-45 77-81 152-82 70 1 115 29 138 82h7c33-46 81-81 158-82 109 1 162 62 161 177V0H678v-336c0-61-23-95-82-95-67 4-102 55-102 125V0H372v-336c0-61-23-95-82-95" id="G"/><path fill="#fff" d="M559-263c0 181-81 275-260 275C121 12 38-82 39-263c-1-182 82-275 260-275 179 0 261 94 260 275zm-394-7c-1 110 27 183 134 182 107 1 135-72 134-182-1-103-32-169-134-168-102-1-133 65-134 168" id="H"/><path fill="#fff" d="M400-70c-36 46-87 82-168 82C121 9 61-47 61-171v-355h122v333c-1 67 31 98 96 98 72-3 117-52 117-125v-306h122V0H417l-10-70h-7" id="I"/><path fill="#fff" d="M304-431c-72 3-117 51-117 125V0H65v-526h102l10 70h7c36-46 87-82 168-82 114 2 172 63 171 183V0H400v-333c1-67-31-98-96-98" id="J"/><path fill="#fff" d="M289-4c-23 8-54 15-85 16-87 1-128-52-128-132v-306H13v-100h66l22-147h97v147h91v100h-91v294c-3 48 44 46 91 44v84" id="K"/><path fill="#fff" d="M616-1349c316 3 526 118 526 426 0 301-201 442-514 447H431V0H136v-1349h480zm-25 646c164 1 254-62 254-215 0-157-99-200-262-202H431v417h160" id="L"/><path d="M661-189C659-62 575 0 450 0H76v-686h374c111 3 192 59 192 169 0 84-49 134-113 157v4c77 19 131 73 132 167zm-134-15c-1-62-37-93-102-93H206v186h227c57-1 96-32 94-93zm-19-285c1-56-32-85-85-86H206v169c115-12 301 43 302-83" id="M"/><path fill="#fff" d="M127-675c0-405 101-695 492-695 382 0 482 297 482 695 0 324-79 561-295 658-59 27-124 37-195 37-378 0-484-300-484-695zm580 451c143-96 121-451 101-680-12-138-46-246-191-246-149 0-184 107-199 248-19 180-21 469 36 598 29 67 72 101 159 103 37 0 69-6 94-23" id="N"/><path fill="#fff" d="M470 0v-305h289V0H470" id="O"/><path fill="#fff" d="M1092-1126C914-878 744-630 663-296c-23 96-34 194-34 296H336c7-366 145-620 298-854 59-90 126-177 197-264H131v-231h961v223" id="P"/><path fill="#fff" d="m102-326 356-358-352-352 158-156 352 350 352-352 158 158-352 354 352 350-158 160-352-354-356 358" id="Q"/><path fill="#fff" d="M683-343C683-119 571 0 351 0H76v-686h275c220 2 332 118 332 343zm-134 11c3-152-53-243-198-243H206v464h145c137-1 195-82 198-221" id="R"/><path fill="#fff" d="M76 0v-686h493v111H206v184h327v111H206V0H76" id="S"/><path fill="#fff" d="M65 0v-723h122V0H65" id="T"/><path fill="#fff" d="M160 0 3-526h126c31 128 68 251 94 384h6c25-133 58-256 88-384h131c31 128 66 251 92 384h6c25-133 61-256 92-384h117L599 0H470c-29-127-63-250-87-383-12-1-4 12-9 25-23 121-58 240-85 358H160" id="U"/><path fill="#fff" d="M788-691c191 26 337 112 337 315 0 286-214 399-510 399-306 0-483-128-522-391l286-25c18 124 91 190 235 188 132-2 223-58 223-188 0-176-191-182-378-179v-227c176 5 345-9 345-176 0-115-82-171-200-171s-198 55-206 169l-281-20c34-252 213-373 492-373 224 0 381 74 451 224 20 43 29 89 29 136 0 195-130 279-301 315v4" id="V"/><path fill="#fff" d="M663-473c-1 97-47 165-118 196L687 0H545L419-255H206V0H76v-686h361c145 0 224 72 226 213zm-132 0c-1-67-37-101-104-102H206v211h221c67 1 104-42 104-109" id="W"/><path fill="#fff" d="M522-184C519-47 427 8 291 12 115 12 38-85 39-263c-1-179 76-275 252-275 178 0 239 115 231 305H164c4 91 33 150 128 149 67-1 108-33 110-100h120zM395-319c-1-75-29-122-104-122-84-1-117 45-125 122h229" id="X"/><path fill="#fff" d="M352-414c-112-10-165 38-165 143V0H65v-526h102l10 83h7c18-64 84-117 168-86v115" id="Y"/><path fill="#fff" d="M409-70c-29 50-86 81-161 82C94 8 39-100 39-264c0-159 56-267 202-274 76 0 127 27 158 73h6v-258h122V0H426l-10-70h-7zM165-269c-1 104 19 178 121 176 96-1 120-75 119-175-1-94-27-164-119-165-98-1-120 65-121 164" id="Z"/><g id="a"><use transform="scale(.02222)" xlink:href="#q"/><use transform="translate(16.022) scale(.02222)" xlink:href="#r"/><use transform="translate(29.311) scale(.02222)" xlink:href="#s"/><use transform="translate(42.289) scale(.02222)" xlink:href="#t"/><use transform="translate(54.311) scale(.02222)" xlink:href="#u"/><use transform="translate(67.267) scale(.02222)" xlink:href="#v"/><use transform="translate(86.4) scale(.02222)" xlink:href="#w"/><use transform="translate(98.867) scale(.02222)" xlink:href="#x"/></g><g id="b"><use transform="scale(.02222)" xlink:href="#y"/><use transform="translate(15.756) scale(.02222)" xlink:href="#z"/><use transform="translate(27.911) scale(.02222)" xlink:href="#u"/><use transform="translate(40.867) scale(.02222)" xlink:href="#x"/><use transform="translate(48.689) scale(.02222)" xlink:href="#A"/><use transform="translate(61.044) scale(.02222)" xlink:href="#t"/><use transform="translate(73.067) scale(.02222)" xlink:href="#B"/></g><g id="c"><use transform="scale(.02222)" xlink:href="#C"/><use transform="translate(17.378) scale(.02222)" xlink:href="#x"/><use transform="translate(25.2) scale(.02222)" xlink:href="#z"/><use transform="translate(37.356) scale(.02222)" xlink:href="#D"/><use transform="translate(50.333) scale(.02222)" xlink:href="#w"/><use transform="translate(62.8) scale(.02222)" xlink:href="#t"/><use transform="translate(74.822) scale(.02222)" xlink:href="#B"/><use transform="translate(81.8) scale(.02222)" xlink:href="#x"/><use transform="translate(89.622) scale(.02222)" xlink:href="#A"/><use transform="translate(101.978) scale(.02222)" xlink:href="#B"/><use transform="translate(108.956) scale(.02222)" xlink:href="#r"/><use transform="translate(122.244) scale(.02222)" xlink:href="#x"/></g><g id="d"><use transform="scale(.02222)" xlink:href="#E"/><use transform="translate(14.889) scale(.02222)" xlink:href="#x"/><use transform="translate(22.711) scale(.02222)" xlink:href="#r"/><use transform="translate(36) scale(.02222)" xlink:href="#z"/><use transform="translate(48.156) scale(.02222)" xlink:href="#w"/><use transform="translate(60.622) scale(.02222)" xlink:href="#t"/><use transform="translate(72.644) scale(.02222)" xlink:href="#t"/><use transform="translate(84.667) scale(.02222)" xlink:href="#r"/><use transform="translate(97.956) scale(.02222)" xlink:href="#x"/></g><g id="e"><use transform="rotate(.906) scale(.01778)" xlink:href="#F"/><use transform="matrix(.01778 0 0 .01778 9.884 0)" xlink:href="#G"/><use transform="matrix(.01778 0 0 .01778 25.191 0)" xlink:href="#H"/><use transform="matrix(.01778 0 0 .01778 35.822 0)" xlink:href="#I"/><use transform="matrix(.01778 0 0 .01778 46.187 0)" xlink:href="#J"/><use transform="matrix(.01778 0 0 .01778 56.569 0)" xlink:href="#K"/></g><g id="g"><use transform="scale(.02222)" xlink:href="#M"/><use transform="translate(15.689) scale(.02222)" xlink:href="#u"/><use transform="translate(28.644) scale(.02222)" xlink:href="#x"/><use transform="translate(36.689) scale(.02222)" xlink:href="#s"/></g><g id="h"><use transform="scale(.00977)" xlink:href="#N"/><use transform="matrix(.00977 0 0 .00977 12.002 0)" xlink:href="#O"/><use transform="matrix(.00977 0 0 .00977 24.004 0)" xlink:href="#P"/></g><g id="k"><use transform="rotate(.906) scale(.01778)" xlink:href="#R"/><use transform="matrix(.01778 0 0 .01778 12.942 0)" xlink:href="#F"/><use transform="matrix(.01778 0 0 .01778 22.827 0)" xlink:href="#K"/><use transform="matrix(.01778 0 0 .01778 28.409 0)" xlink:href="#F"/></g><g id="l"><use transform="rotate(.906) scale(.01778)" xlink:href="#S"/><use transform="matrix(.01778 0 0 .01778 10.827 0)" xlink:href="#T"/><use transform="matrix(.01778 0 0 .01778 15.307 0)" xlink:href="#H"/><use transform="matrix(.01778 0 0 .01778 25.938 0)" xlink:href="#U"/></g><g id="m"><use transform="scale(.00977)" xlink:href="#N"/><use transform="matrix(.00977 0 0 .00977 12.002 0)" xlink:href="#O"/><use transform="matrix(.00977 0 0 .00977 24.004 0)" xlink:href="#V"/></g><g id="p"><use transform="rotate(.906) scale(.01778)" xlink:href="#W"/><use transform="matrix(.01778 0 0 .01778 12.569 0)" xlink:href="#X"/><use transform="matrix(.01778 0 0 .01778 22.542 0)" xlink:href="#U"/><use transform="matrix(.01778 0 0 .01778 35.929 0)" xlink:href="#F"/><use transform="matrix(.01778 0 0 .01778 45.813 0)" xlink:href="#Y"/><use transform="matrix(.01778 0 0 .01778 52.071 0)" xlink:href="#Z"/></g><use transform="scale(.00868)" xlink:href="#L" id="f"/><use transform="scale(.00977)" xlink:href="#Q" id="i"/><use transform="scale(.00977)" xlink:href="#L" id="j"/><use transform="scale(.00977)" xlink:href="#Q" id="n"/><use transform="scale(.00977)" xlink:href="#L" id="o"/></defs></g></svg>