<svg width="1070" height="180" viewBox="0 0 1070 180" fill="none" xmlns="http://www.w3.org/2000/svg">
<path d="M85 150L150 0H65L0 150H85Z" fill="black"/>
<path d="M165 180L130 100H215L250 180H165Z" fill="black"/>
<path d="M281.2 140L319.9 36.9501H352.15L390.85 140H362.2L356.05 122.15H314.95L308.8 140H281.2ZM321.4 102.05H349.45L342.1 80.3001C341.7 79.2002 341.2 77.8502 340.6 76.2502C340.1 74.5502 339.55 72.8002 338.95 71.0002C338.45 69.1002 337.95 67.2002 337.45 65.3002C336.95 63.4002 336.45 61.7502 335.95 60.3502H334.9C334.5 62.2502 333.9 64.4001 333.1 66.8001C332.4 69.2002 331.65 71.6002 330.85 74.0002C330.15 76.4002 329.5 78.5002 328.9 80.3001L321.4 102.05Z" fill="black"/>
<path d="M450.927 141.8C439.827 141.8 430.377 139.9 422.577 136.1C414.877 132.2 409.027 126.3 405.027 118.4C401.027 110.5 399.027 100.5 399.027 88.4002C399.027 70.6002 403.477 57.3002 412.377 48.5002C421.377 39.6001 434.227 35.1501 450.927 35.1501C460.227 35.1501 468.477 36.7501 475.677 39.9501C482.877 43.0501 488.477 47.7501 492.477 54.0502C496.577 60.2501 498.627 68.0002 498.627 77.3002H472.377C472.377 72.9002 471.477 69.1502 469.677 66.0502C467.977 62.8501 465.527 60.4001 462.327 58.7001C459.227 57.0001 455.427 56.1502 450.927 56.1502C445.327 56.1502 440.727 57.3002 437.127 59.6002C433.527 61.9002 430.877 65.2002 429.177 69.5002C427.477 73.8002 426.627 79.0002 426.627 85.1002V91.8501C426.627 97.9501 427.477 103.2 429.177 107.6C430.877 111.9 433.477 115.2 436.977 117.5C440.577 119.7 445.177 120.8 450.777 120.8C455.577 120.8 459.627 120 462.927 118.4C466.327 116.8 468.877 114.45 470.577 111.35C472.377 108.15 473.277 104.35 473.277 99.9502H498.627C498.627 109.25 496.627 117 492.627 123.2C488.727 129.4 483.177 134.05 475.977 137.15C468.877 140.25 460.527 141.8 450.927 141.8Z" fill="black"/>
<path d="M566.72 141.8C556.82 141.8 548.27 140.25 541.07 137.15C533.97 134.05 528.52 129.4 524.72 123.2C520.92 117 519.02 109.3 519.02 100.1V36.9501H546.02V99.5002C546.02 106.1 547.77 111.3 551.27 115.1C554.77 118.9 559.92 120.8 566.72 120.8C573.52 120.8 578.72 118.9 582.32 115.1C585.92 111.3 587.72 106.1 587.72 99.5002V36.9501H614.57V100.1C614.57 109.3 612.67 117 608.87 123.2C605.07 129.4 599.62 134.05 592.52 137.15C585.42 140.25 576.82 141.8 566.72 141.8Z" fill="black"/>
<path d="M639.801 140V36.9501H699.651C707.251 36.9501 713.601 38.4001 718.701 41.3001C723.801 44.1001 727.6 48.0001 730.101 53.0001C732.7 57.9001 734.001 63.4002 734.001 69.5002C734.001 76.1002 732.451 82.0002 729.351 87.2002C726.351 92.3002 722.101 96.3002 716.601 99.2002L737.301 140H707.301L690.201 103.7H666.651V140H639.801ZM666.651 83.7502H694.401C698.101 83.7502 701.051 82.5502 703.251 80.1502C705.551 77.6502 706.701 74.3502 706.701 70.2502C706.701 67.5502 706.201 65.2502 705.201 63.3502C704.201 61.4502 702.801 60.0002 701.001 59.0002C699.201 57.9002 697.001 57.3502 694.401 57.3502H666.651V83.7502Z" fill="black"/>
<path d="M745.25 140L783.951 36.9501H816.201L854.9 140H826.251L820.101 122.15H779L772.851 140H745.25ZM785.451 102.05H813.501L806.15 80.3001C805.75 79.2002 805.251 77.8502 804.651 76.2502C804.151 74.5502 803.601 72.8002 803.001 71.0002C802.501 69.1002 802 67.2002 801.5 65.3002C801 63.4002 800.501 61.7502 800.001 60.3502H798.951C798.551 62.2502 797.951 64.4001 797.151 66.8001C796.451 69.2002 795.7 71.6002 794.9 74.0002C794.2 76.4002 793.551 78.5002 792.951 80.3001L785.451 102.05Z" fill="black"/>
<path d="M912.965 141.8C906.465 141.8 900.365 141.2 894.665 140C888.965 138.9 883.915 137.05 879.515 134.45C875.215 131.85 871.815 128.45 869.315 124.25C866.815 119.95 865.565 114.7 865.565 108.5C865.565 108.1 865.565 107.65 865.565 107.15C865.565 106.65 865.615 106.25 865.715 105.95H891.665C891.665 106.25 891.615 106.65 891.515 107.15C891.515 107.55 891.515 107.9 891.515 108.2C891.515 111.4 892.315 114 893.915 116C895.615 117.9 897.965 119.3 900.965 120.2C903.965 121 907.465 121.4 911.465 121.4C913.665 121.4 915.715 121.3 917.615 121.1C919.515 120.9 921.215 120.55 922.715 120.05C924.215 119.55 925.515 118.95 926.615 118.25C927.815 117.45 928.664 116.55 929.164 115.55C929.764 114.45 930.065 113.2 930.065 111.8C930.065 109.5 929.165 107.6 927.365 106.1C925.665 104.6 923.315 103.35 920.315 102.35C917.415 101.35 914.115 100.4 910.415 99.5002C906.715 98.6002 902.865 97.6502 898.865 96.6502C894.865 95.6502 891.015 94.4002 887.315 92.9002C883.615 91.4002 880.265 89.5002 877.265 87.2002C874.365 84.9002 872.015 82.0501 870.215 78.6502C868.515 75.1501 867.665 70.9501 867.665 66.0502C867.665 60.6501 868.815 56.0001 871.115 52.1002C873.415 48.1001 876.565 44.8501 880.565 42.3502C884.665 39.8501 889.365 38.0501 894.665 36.9501C899.965 35.7501 905.615 35.1501 911.615 35.1501C917.515 35.1501 923.015 35.7501 928.115 36.9501C933.315 38.1502 937.915 40.0502 941.915 42.6501C945.915 45.1502 949.015 48.3502 951.215 52.2501C953.515 56.0501 954.715 60.6501 954.815 66.0502V67.8501H929.014V66.8001C929.014 64.5001 928.364 62.5002 927.064 60.8002C925.864 59.0002 924.014 57.6002 921.514 56.6001C919.014 55.5002 915.915 54.9501 912.215 54.9501C908.515 54.9501 905.365 55.3002 902.765 56.0002C900.265 56.7002 898.315 57.7002 896.915 59.0002C895.615 60.3002 894.965 61.8502 894.965 63.6502C894.965 65.8502 895.815 67.6502 897.515 69.0502C899.315 70.4502 901.715 71.6501 904.715 72.6501C907.715 73.6502 911.065 74.6002 914.765 75.5002C918.465 76.3002 922.265 77.2002 926.165 78.2001C930.165 79.1001 934.015 80.3002 937.715 81.8002C941.415 83.2002 944.764 85.0501 947.764 87.3501C950.764 89.5501 953.115 92.3001 954.815 95.6001C956.615 98.9001 957.515 102.9 957.515 107.6C957.515 115.8 955.565 122.4 951.665 127.4C947.865 132.4 942.565 136.05 935.765 138.35C929.065 140.65 921.465 141.8 912.965 141.8Z" fill="black"/>
<path d="M1003.6 140V59.0002H970.154V36.9501H1063.9V59.0002H1030.45V140H1003.6Z" fill="black"/>
</svg>
