<svg width="24" height="12" viewBox="0 0 24 12" fill="none" xmlns="http://www.w3.org/2000/svg">
<g clip-path="url(#clip0_1023_346)">
<path d="M5.184 0H6.1704C7.7112 0.1512 9.1368 0.9264 10.1928 2.0424C12.384 4.3416 13.5888 7.5864 16.3776 9.2976C18.3936 10.536 21.2136 9.5232 22.2048 7.4328C22.7088 7.4232 23.2152 7.4232 23.7192 7.4256C23.0256 9.5496 21.0048 11.076 18.7944 11.28H17.9808C16.62 11.1672 15.2976 10.644 14.268 9.7392C12.7728 8.472 11.8128 6.7344 10.6512 5.1864C9.6528 3.8184 8.6328 2.28 6.9792 1.6584C4.9368 0.8928 2.4408 2.0904 1.6968 4.1256C1.0416 5.8008 1.5744 7.8792 3.0384 8.952C4.1352 9.8016 5.664 10.1184 6.9816 9.624C8.4456 9.096 9.5328 7.896 10.3656 6.624C10.6944 7.0944 11.0136 7.572 11.3304 8.052C10.0344 9.684 8.2368 11.0856 6.0984 11.28H5.2224C2.5272 11.0928 0.1848 8.8032 0 6.0984V5.2128C0.1752 2.5128 2.4864 0.1968 5.184 0Z" fill="#DE3F6B"/>
<path d="M17.9256 0H18.744C21.4632 0.1776 23.7768 2.5128 24 5.2176V6.6048C21.756 6.6264 19.5096 6.612 17.2656 6.6144C17.268 6.2088 17.268 5.8056 17.2656 5.4C19.0392 5.3952 20.8104 5.4072 22.5816 5.3952C22.4568 4.6776 22.2936 3.9432 21.8688 3.336C20.832 1.752 18.6408 1.104 16.8888 1.7904C15.492 2.3088 14.4408 3.444 13.6296 4.656C13.3176 4.2072 13.008 3.7536 12.708 3.2952C13.9872 1.6392 15.7728 0.2064 17.9256 0Z" fill="#DE3F6B"/>
</g>
<defs>
<clipPath id="clip0_1023_346">
<rect width="24" height="11.28" fill="white"/>
</clipPath>
</defs>
</svg>
