<svg width="24" height="24" xmlns="http://www.w3.org/2000/svg" viewBox="0 0 2500 2500" style="enable-background:new 0 0 2500 2500" xml:space="preserve"><path d="M583.3 385.4 1250 0l666.7 385.4-250 135.4L1250 281.2 822.9 520.8 583.3 385.4zm1322.9 479.2-239.6-135.4L1250 968.8 822.9 729.2 583.3 864.6v281.3l416.7 239.6v489.6l239.6 145.8 239.6-145.8v-479.2l416.7-239.6V864.6h10.3zm0 770.8v-281.2L1666.7 1500v270.8l239.5-135.4zm177.1 93.8-416.7 239.6V2250l666.7-385.4v-770.8l-250 156.2v479.2zM1843.8 625l239.6 145.8v281.3L2323 906.3V625l-239.6-145.8L1843.8 625zM1000 2072.9v281.2l239.6 145.8 239.6-145.8v-281.2l-239.6 145.8-239.6-145.8zm-416.7-437.5 239.6 135.4v-281.2l-239.6-145.8v291.6zM1000 625l239.6 145.8 250-145.8L1250 479.2 1000 625zM406.2 770.8l250-145.8-250-145.8L166.7 625v281.2L406.3 1052V770.8zm0 479.2-239.6-145.8V1875l666.7 385.4v-281.2l-416.7-239.6V1250h-10.4z" style="fill:#f0b90b"/><path style="fill:none" d="M0 0h2500v2500H0z"/></svg>