<svg width="24" height="24" xmlns="http://www.w3.org/2000/svg" viewBox="0 0 339.93 162.58"><path d="m250.64 81.45-34.89 50.18c-1.55 2.23-.87 5.28 1.45 6.69 1.3.79 2.62 1.55 3.98 2.27 10.7 5.74 23.16 9.49 37.46 9.49 37.94 0 68.71-30.72 68.79-68.64v-.25c0-36.98-29.27-67.57-66.24-68.65-46.03-1.35-68.61 33.7-91.23 68.75h0c-22.62 35.05-45.2 70.1-91.23 68.75-36.97-1.08-66.24-31.67-66.24-68.65v-.25c.08-37.92 30.85-68.64 68.79-68.64 14.3 0 26.76 3.74 37.46 9.49 1.35.73 2.68 1.49 3.98 2.27 2.32 1.41 3.01 4.46 1.45 6.69L89.28 81.13" style="fill:none;stroke:#fff;stroke-linecap:round;stroke-miterlimit:10;stroke-width:25px"/></svg>